<svg width="400" height="300" xmlns="http://www.w3.org/2000/svg">

 <g>
  <title>Layer 1</title>
  <g>
   <g stroke-width="0.4" stroke="#000">
    <path d="m141.8,72.55l0,24.6l4.6,-4.1c4.9,-4.3 12.1,-7.1 18.3,-7.1c2,0 6.3,-0.9 9.5,-2c6,-2 17.6,-2.5 24.1,-1.1c1.7,0.4 5.2,0.1 8,-0.6c2.7,-0.7 5.4,-1.3 6,-1.3c0.6,0 1.7,3 2.5,6.7c1,5.3 2,7.5 5,10.6l3.7,4l10.9,0.7c6,0.4 12.7,1.4 15,2.3c6.6,2.5 16.6,7.7 21.7,11.4c4.4,3.3 5.3,3.5 11.5,3.4c3.6,-0.1 8.6,0.5 11.1,1.3c2.5,0.9 5.3,1.5 6.1,1.4c3.5,-0.3 4.9,0.4 7.3,3.6l2.6,3.4l-5.6,1.3c-8.5,2.1 -9.9,6.8 -2.1,6.9c2.1,0 2.6,0.4 2.1,1.6c-0.6,1.5 0.5,1.6 11.7,0.9c6.8,-0.4 13.5,-1.1 14.8,-1.6c1.3,-0.5 4.5,-0.9 7.2,-0.9c4.3,0 4.9,0.3 5.2,2.2c0.2,1.5 1.1,2.4 2.5,2.6c1.7,0.3 2.2,-0.3 2.5,-2.4c0.3,-2.6 0.8,-2.9 6.8,-4c6.9,-1.3 16.4,-3.7 19.3,-4.9c1.2,-0.5 1.7,-0.2 1.7,1c0,1 0.9,4.3 1.9,7.4c1.1,3.1 2.3,7.4 2.6,9.6c0.5,2.8 1.9,5.2 5,8.3c2.4,2.4 4.9,4.1 5.5,3.7c1.8,-1.1 1.1,-4.1 -1.4,-5.5c-2.5,-1.3 -4,-4.1 -5.2,-9.5c-0.3,-1.7 -1.8,-5 -3.1,-7.4c-2,-3.5 -2.4,-5.3 -2,-8.8c0.3,-2.5 1.1,-4.9 1.8,-5.4c2.2,-1.4 0.3,-1 -4.1,0.7c-2.2,0.9 -4,2.3 -4,3c0,2.2 -3.4,3.1 -14.5,3.8c-15.5,1.1 -29.1,2.3 -39.8,3.6c-5.4,0.7 -11,0.9 -12.5,0.5c-2.5,-0.6 -2.3,-0.8 2.6,-2.4c6.5,-2.2 9.7,-4.8 8.1,-6.8c-0.6,-0.7 -1.8,-1.3 -2.6,-1.3s-3,-1.2 -4.9,-2.7l-3.6,-2.7l6.9,-2.4c10.8,-3.8 16.1,-5 27.3,-6.1c5.8,-0.6 12.8,-1.6 15.5,-2.3c4.5,-1.2 5,-1.6 5,-4.1l-0.1,-2.7l14.2,0c7.8,0 16.6,-0.5 19.5,-1c3,-0.6 8.6,-1.5 12.4,-2.1c3.9,-0.5 7.8,-1.2 8.7,-1.5c1.9,-0.6 11.1,7.6 15.3,13.6c2.3,3.3 2.7,5 2.7,10.7c0.1,7.6 -1.5,19.3 -3.7,26.8c-0.8,2.7 -2.1,8.8 -3,13.5c-0.8,4.6 -1.8,8.7 -2.3,9.1c-0.9,0.8 -19.4,-0.9 -20.5,-2c-1.2,-1.2 -5.7,-0.1 -5.7,1.5c0,0.7 0.5,1.6 1.2,2c1.9,1.2 13,3.3 17.6,3.4l4.2,0l0,9.3c0,6 0.7,12.1 1.9,16.9c1.1,4.1 2.4,9.9 3,12.9c0.5,3 1.3,6.2 1.6,7.1c0.6,1.5 0.1,1.8 -3.1,1.8c-6.5,0 -16.8,2.1 -20.2,4.2c-1.8,1.1 -6.4,2.8 -10.1,3.7c-5.7,1.4 -7.2,1.5 -8.7,0.4c-1.7,-1.2 -1.6,-1.4 0.6,-3.8c1.3,-1.4 2.9,-2.5 3.7,-2.5c2.1,0 1.5,-3.5 -1.1,-6c-3.2,-2.9 -5.9,-2.1 -5,1.5c0.7,2.7 0.7,2.6 -8.1,11.9c-3,3.3 -3.8,3.6 -9,3.6c-5.4,0 -5.6,-0.1 -4.2,-2c0.7,-1 2.6,-2.9 4.1,-4.1c3.8,-3 5.6,-7.7 5.6,-14.3c0,-7.7 -3.7,-8.6 -5.5,-1.4c-0.4,1.5 -1.3,3.2 -2.1,3.9c-1.8,1.5 -16.3,1.2 -18.2,-0.3c-1,-0.9 -1.3,-3 -1,-8.3c0.5,-9.8 3.8,-16.2 9.9,-19.1c5.1,-2.5 6,-5.1 1.5,-4.6c-1.8,0.2 -4,-0.5 -5.7,-1.7l-2.8,-2.1l-1.1,3.6c-0.8,2.2 -2.1,3.9 -3.6,4.5c-1.4,0.5 -2.4,1.5 -2.3,2.1c0.1,0.7 0.1,2.7 0,4.4c-0.1,3.1 -0.4,3.2 -9.9,6.4c-8.9,3 -10.8,3.3 -22.9,3.4c-15.7,0.1 -16.6,-0.3 -22.7,-10.8c-4.3,-7.6 -13.5,-18 -17.7,-20.2c-3.9,-2 -5.8,-0.9 -7,4.2c-0.6,2.5 -1.6,4.7 -2.2,5.1c-0.6,0.3 -10.6,0.7 -22.2,0.7c-16.5,0.1 -21.6,0.4 -22.9,1.5c-0.9,0.7 -3.1,2.1 -4.8,3c-1.8,0.9 -4.7,3.6 -6.4,6.1c-1.8,2.5 -4.6,6 -6.3,7.9c-2.8,2.9 -3.5,3.2 -6.7,2.6c-8.5,-1.5 -9.8,-3.5 -13.3,-19.5c-1.9,-9.1 -3.4,-12.7 -6,-14.7c-2.2,-1.7 -6.7,-1.6 -9.5,0.2c-2.2,1.5 -2.6,1.4 -7.2,-2.3c-2.7,-2.2 -6,-5.1 -7.3,-6.6c-3.2,-3.5 -4.1,-3.3 -4.1,0.9c0,3 0.8,4.1 6,8.5c7.2,5.9 10,6.8 14.6,4.7c4.4,-2.1 5.9,-0.7 7.4,7.1c1.8,8.9 4.8,18.5 6.6,21.1c2.2,3.1 8.9,6.1 13.7,6.1c5.6,0 9.2,-2.6 14.3,-10.2c2.5,-3.7 5.6,-7 6.7,-7.4c1.2,-0.3 2.9,-1.2 3.7,-1.9c2,-1.7 24.8,-2.6 34.5,-1.4c9.2,1.2 12.3,-0.1 15.2,-6.2l2,-4.3l5,5.3c2.8,2.9 6.6,8 8.4,11.3c7.9,14 10.7,15.3 30.6,14.5c11.4,-0.4 15.1,-0.9 21.2,-3.1c4.1,-1.4 7.6,-2.6 7.8,-2.6c0.2,0 0.3,2.7 0.3,5.9c0,4.9 0.5,6.5 2.4,8.8c2.2,2.6 2.9,2.7 12.5,3.1c5.5,0.2 10.1,0.6 10.1,0.8c0,0.2 -1.8,2.1 -4.1,4.1c-4.8,4.4 -6.3,7.6 -4.9,10.4c0.9,1.6 2.2,1.9 8,1.9c7.9,0 11.4,-1.1 15.2,-4.7c2.4,-2.3 2.8,-2.4 3.4,-0.9c0.9,2.4 -0.5,3.7 -14.5,12.9c-15.9,10.6 -14,9.6 -20.8,10.3c-7,0.6 -12.2,3.5 -19.4,10.5l-5.2,5.1l-9.6,-3.7c-14.9,-5.8 -17.2,-7 -23.4,-12.3c-5.3,-4.5 -10.9,-7.2 -15.1,-7.2c-2.5,0 -11.2,2.8 -19,6.1c-7.3,3.1 -10.1,3.5 -11.1,1.9c-1.6,-2.6 -10.9,-6.1 -17.3,-6.6c-3.7,-0.3 -9.6,-1.1 -13.2,-1.9c-10.2,-2.2 -25.7,-3.8 -27.2,-2.9c-0.7,0.5 -6.5,1.2 -12.8,1.5c-27.3,1.6 -30.9,2.1 -31.6,4.1c-0.3,1.1 -0.3,2.2 0,2.6c0.4,0.3 6.8,0 14.4,-0.6c19.3,-1.7 49.7,-1.6 57.5,0.3c3.4,0.8 8.8,1.7 12,2c3.8,0.4 8.2,1.9 12.4,4.1c7.6,3.9 10,4.2 14.4,1.5c1.8,-1.1 5.9,-2.7 9.3,-3.6l6.1,-1.7l15.7,8.1c13.1,6.8 16.5,8.1 20.4,8.1c3,0 7.1,1 11.3,2.9c15,6.5 15.2,6.6 24.6,6.6c10.7,0 21.2,-1.8 26.3,-4.5c4.2,-2.3 7.8,-2.5 13.3,-0.8l3.9,1.1l0,40.6l-4.1,1.1c-3.2,0.9 -5.1,0.8 -9.7,-0.5c-6.2,-1.9 -13.7,-1.3 -14.6,1c-0.8,2.1 -7.5,5.2 -15.2,7.1c-3.8,0.9 -8.4,2.3 -10.3,3.1c-2.6,1.2 -5.4,1.4 -11.4,1c-7.5,-0.6 -8.3,-0.9 -13.1,-4.8c-10.6,-8.5 -16.7,-11.9 -21.1,-11.9c-4.1,0 -4.3,-0.1 -6.4,-5.1c-1.1,-2.9 -2.1,-6.3 -2.1,-7.8c-0.1,-3 -11.4,-15.1 -22.3,-23.9c-3.6,-2.9 -8.1,-7.3 -9.8,-9.7l-3.2,-4.5l-13.3,0c-11.6,0 -13.9,-0.3 -19.8,-2.5c-6.5,-2.5 -11.9,-3.1 -16.3,-1.9l-2.3,0.6l2,2.5c1.5,1.9 1.7,3 0.9,4.4c-0.8,1.7 0.1,3 6.2,9.2c6.1,6.2 7.6,8.4 10.2,15.2c3.9,10.5 4.3,17.1 1.1,20.8c-3,3.5 -6.9,5 -9.4,3.7c-1,-0.5 -2.9,-1 -4.2,-1c-1.3,0 -3.2,-0.6 -4.3,-1.3c-5.2,-3.3 -12.4,-4.9 -19.4,-4.2c-6.9,0.7 -7.1,0.6 -11.1,-2.7c-2.3,-1.8 -5.1,-5 -6.1,-7.1c-1.9,-3.7 -4.4,-5.2 -10.1,-6.4c-2.4,-0.5 -2.8,-0.2 -2.8,1.6c0,1.6 0.6,2.1 2.6,2.1c3.3,0 6.1,1.5 7.5,4.2c1,1.9 0.9,2 -1.6,1.4c-3.8,-1 -2.5,0.7 4.9,6.1l6.1,4.5l9.7,-0.6c11.2,-0.7 13.5,-0.1 19.5,5.4c5,4.7 8.7,5.2 13,1.7c1.5,-1.3 4.9,-3.7 7.5,-5.4l4.6,-3.1l1,3.8c0.9,3.7 0.8,3.9 -1.9,4.9c-1.9,0.6 -2.9,1.7 -2.9,3c0,1.9 5.7,13.3 11,22.1c4.5,7.3 6.6,13.9 5.2,16.1c-0.7,1 -1.2,4.3 -1.2,7.3c0,4.5 0.8,6.9 4.5,14c2.5,4.8 4.5,9.7 4.5,11c0,2.6 2.6,10.5 6.2,18.6c1.7,3.8 2.3,6.7 2.1,9.5c-0.4,3.6 -0.9,4.2 -4.1,5.4c-4.6,1.7 -19.1,2.5 -29.9,1.6l-8.3,-0.7l-3.1,-4.6c-1.8,-2.7 -4.3,-8.8 -5.9,-14.4c-3,-10.8 -4.6,-13.3 -9.1,-14.2c-1.9,-0.4 -3.3,-1.5 -4.1,-3.3c-0.7,-1.6 -2.5,-4.3 -4,-6.1c-1.5,-1.8 -4,-5.6 -5.4,-8.5c-1.5,-2.9 -3.5,-6.4 -4.5,-7.9c-1.1,-1.4 -1.9,-4.3 -1.9,-6.3c0,-4.2 -2.8,-17.5 -4.1,-19.1c-0.5,-0.6 -1.7,-5.5 -2.8,-11c-1.8,-9.3 -2.2,-10.1 -5.9,-13.4c-2.2,-1.9 -4.5,-4.5 -5.1,-5.7c-0.7,-1.3 -1.8,-2.3 -2.6,-2.3c-1.3,0 -1.5,7.6 -1.5,56.9c0,44.6 0.3,57 1.3,57.4c0.9,0.4 0.9,0.6 0,0.6c-1,0.1 -1.3,9 -1.3,40.8l0,40.8l9.8,-0.1c5.3,-0.1 12.4,0.1 15.7,0.4c5.1,0.5 5.5,0.7 3,1.3c-4.8,1.1 -15.9,1 -19.3,-0.2c-2.7,-0.9 -3.6,-0.8 -6.2,1.1c-1.6,1.2 -3,2.8 -3,3.6c0,1.9 1,1.8 3.6,-0.7c1.8,-1.7 2.6,-1.9 4.2,-1c2.6,1.4 17.5,1.4 22.2,0.1c3.3,-0.9 3.1,-0.6 -3.9,5.9l-7.4,6.9l-5.7,-0.5c-7.3,-0.7 -13,0.3 -13,2.2c0,1.2 1.6,1.5 7.2,1.5l7.2,0l-5,5.3c-2.8,2.8 -6.1,6.7 -7.3,8.4l-2.2,3.3l2.4,0c1.5,0 2.8,-0.9 3.7,-2.5c1.8,-3.4 11.7,-11.8 14.3,-12.2c1.5,-0.3 0.3,1.5 -4.1,6.1c-3.4,3.5 -6.2,6.9 -6.2,7.5c0,2.6 3.2,0.6 10.2,-6.6c5.2,-5.3 9.8,-8.9 14.2,-11.2c3.6,-1.8 6.6,-3.9 6.6,-4.7c0,-1.8 -1.5,-1.8 -4.6,0.2c-4.3,2.9 -3.6,0.9 1.1,-3.1c4.9,-4.2 5.5,-5.9 2.8,-7.4c-1,-0.5 -1.5,-1.3 -1.1,-1.6c1,-1 10.9,1.6 13,3.3c1.8,1.5 6.8,0.9 6.8,-0.8c0,-1.8 34.7,-1.2 43,0.6c5,1.2 6.8,1.9 5.8,2.6c-3.6,2.5 -19,9.8 -20.5,9.8c-1,0 -3.3,1 -5.2,2.3c-1.9,1.2 -5.1,3.3 -7.2,4.7c-10.4,6.8 -13.9,9.6 -13.6,11c0.3,1.9 4.1,2.5 7.6,1.1c1.4,-0.7 4.6,-3.4 6.9,-6.1c2.4,-2.8 6.1,-5.9 8.3,-7.1c3.7,-1.8 5.1,-1.9 16.2,-1.3l12.1,0.7l-11.4,5.4c-6.2,2.9 -11.6,5.5 -11.8,5.8c-0.2,0.2 -0.2,1.1 0.1,1.9c0.5,1.2 2,0.8 8,-2.2c4,-2 9.9,-4.8 13,-6.1c5.3,-2.2 15.4,-7.6 24.1,-13.1c2.2,-1.3 3.6,-1.8 3.2,-1.2c-0.4,0.7 -3.1,2.6 -5.9,4.3c-2.9,1.7 -8.1,4.9 -11.7,7.1c-3.6,2.3 -9.3,5.1 -12.8,6.3c-7.1,2.5 -9.4,4.1 -7,5c2.1,0.8 13.6,-3.7 21.5,-8.5c16.6,-9.9 19.4,-12 20.4,-15c0.9,-2.4 1.7,-2.8 6.7,-3.5c9,-1.2 17,-1 26.2,0.3c4.7,0.8 11.4,1.7 15,2.2c4.1,0.5 6.9,1.5 7.7,2.6c1.5,2.1 4.3,1.1 4.3,-1.6c0,-1.9 0.5,-2 22.8,-1.7l22.7,0.2l0,-17.5c0.1,-17.2 -0.9,-27.4 -4,-40.5c-0.8,-3.7 -1.5,-7.8 -1.5,-9.3c0,-1.5 -1.4,-4.7 -3,-7.1c-3.9,-5.7 -3.8,-9.1 0.1,-13.5l3.1,-3.6l-22.4,0.7c-12.3,0.3 -24.3,0.3 -26.9,-0.1l-4.5,-0.7l-3.3,-7.6c-1.8,-4.2 -3.5,-9.3 -3.8,-11.2c-0.8,-6.6 -1.3,-7.9 -3.8,-11c-1.4,-1.6 -3.7,-6.2 -5,-10c-1.4,-4.1 -4,-9.1 -6.3,-11.8c-2.1,-2.7 -4.4,-6.1 -5.1,-7.8c-2,-4.6 -11.6,-18.7 -15,-21.9c-3.2,-3.1 -4.4,-7.3 -5.7,-19.7c-0.6,-6.1 -0.4,-6.8 1.4,-7.3c2.6,-0.9 7.3,1 6.7,2.6c-0.6,1.6 6.8,7.5 14.5,11.5c4.5,2.3 6.6,2.8 12.5,2.7c8.9,-0.1 19.7,-3.1 31.9,-8.9c10.6,-5 14,-5.4 20.2,-2.5c3.9,2 4.6,2 10.3,0.7l6.2,-1.5l4.6,4.7c4.7,4.7 9.7,7.3 14.6,7.5c2.7,0.1 2.7,0.2 2.7,6.8c0,3.7 0.4,6.9 0.8,7.2c1.5,0.9 5.2,-0.6 5.2,-2.1c0,-1.1 1.2,-1.3 5.3,-1.1l5.2,0.3l0.7,10c0.8,11.1 2.1,20.1 3.1,21.1c1.5,1.5 1.8,-2.7 0.6,-8.3c-0.7,-3.2 -1.4,-8.6 -1.6,-12.1l-0.5,-6.2l3,0c4.7,0 5.5,-1.9 5.8,-14.1c0.2,-6.1 0.5,-11.4 0.8,-11.6c0.3,-0.3 1.8,2.1 3.3,5.3c1.5,3.2 4.6,7.7 6.8,9.9l4,4l-0.3,8.3c-0.3,8.4 0.4,14.6 1.6,13.8c0.4,-0.2 0.5,1.6 0.3,4c-0.4,6.2 -1.7,4.6 -2.6,-3.1c-0.6,-5.7 -1,-6.8 -3.1,-7.7c-4.4,-2 -4.8,0.1 -2,9.1c3.7,11.7 4.2,15.5 2.2,18.2c-2.1,3.1 -2.2,8.9 -0.1,8.9c0.9,0 6.6,-2.1 12.7,-4.6c8.4,-3.5 12.2,-4.5 15.7,-4.4c6.7,0.4 6.8,0.3 8.1,-3.5c1.1,-3.4 1,-3.7 -3,-8.5c-4.6,-5.6 -4.4,-5.4 -7.1,-4c-1.8,1 -1.8,1.2 0.7,3.4c2.4,2 2.6,2.7 2,6.9c-0.4,2.6 -1.1,4.7 -1.7,4.7c-1.3,0 -1.1,-1.6 0.3,-4c0.9,-1.3 0.9,-2.7 0.2,-4.7c-0.9,-2.6 -1.4,-2.8 -6.7,-3.1c-4.5,-0.2 -6.7,0.2 -9.4,1.8l-3.6,2.1l0.7,-2.3c1.5,-5 1.8,-16.8 0.7,-21.3c-0.7,-2.6 -1.1,-4.9 -0.9,-5c0.2,-0.2 1.9,0 3.7,0.4c3.3,0.6 3.6,1.1 5.8,8.1c1.2,4.1 2.3,8.3 2.3,9.2c0,1 0.5,1.8 1,1.8c2.1,0 -0.3,-11.9 -3.3,-16.8c-0.6,-0.8 0,-1.5 1.6,-2.1c3.6,-1.4 3.9,-2.3 2.3,-9.1c-1.4,-6 -1.1,-17 0.4,-17c0.5,0 2.7,-1.6 5,-3.5c3.2,-2.7 4.7,-3.4 6.7,-2.9c2.3,0.6 4.2,-0.7 4.3,-2.9c0,-1.2 -11.4,-0.7 -13.1,0.6c-0.8,0.7 -2,2.1 -2.6,3.1c-0.9,1.7 -1.2,0.9 -1.8,-4.5c-0.4,-3.6 -0.4,-9.4 -0.1,-13c1,-10.8 0.9,-12.4 -1.7,-16.2c-1.4,-2 -2.8,-5.3 -3.2,-7.4c-0.4,-2.1 -1.2,-4.5 -1.9,-5.3c-0.7,-0.8 -1.6,-2.2 -1.9,-3.1c-0.5,-1.5 -0.2,-1.5 2.6,-0.6c1.8,0.6 4.6,2.1 6.3,3.4c5.7,4 18.9,8.2 20.6,6.5c1.5,-1.5 0.2,-4.2 -2.1,-4.2c-3.3,0 -13.5,-4.2 -16.3,-6.8c-1.9,-1.7 -4.2,-2.6 -7.6,-3c-4,-0.3 -5.2,-0.9 -6,-2.8c-0.6,-1.3 -2.5,-3 -4.2,-3.9c-2.4,-1.2 -3,-2.2 -3,-4.8c0.1,-2.6 0.3,-2.9 1,-1.5c0.8,1.3 2.1,1.6 6.8,1.1c3.1,-0.2 7.4,-1.1 9.5,-1.9c2,-0.8 5.3,-1.4 7.2,-1.4c1.8,0 3.7,-0.5 4,-1c0.4,-0.6 3,-2.5 5.8,-4.4c3.9,-2.4 5.8,-4.5 7.2,-7.7c1,-2.4 2,-4.5 2.1,-4.7c0.1,-0.2 2.3,1.2 4.9,2.9c5.9,4 13.6,5.9 24,5.9c6.5,0 9,-0.5 13.5,-2.6c16.6,-7.7 28.6,-7.3 41.5,1.6c7.5,5.2 12.4,7 19,6.9c9.5,0 14,-1.1 14,-3.3c0,-1.7 -0.8,-1.9 -9.2,-1.7c-9.5,0.2 -15,-1.4 -18.2,-5.3c-0.7,-0.9 -1.7,-1.3 -2.1,-1.1c-0.5,0.3 -3,-0.8 -5.5,-2.4c-2.5,-1.6 -6.9,-3.5 -9.7,-4.1c-6.2,-1.5 -16.8,-0.8 -22.8,1.5c-2.5,0.9 -7,2 -10,2.4c-3,0.4 -6.5,1.2 -7.7,1.9c-2.9,1.6 -8.2,1.5 -11.3,-0.3c-1.4,-0.8 -4,-1.4 -5.8,-1.5c-3.2,0 -10.2,-2.6 -10.2,-3.7c0,-0.3 1.1,-1.6 2.5,-2.9c2.8,-2.6 3.2,-5.6 1,-7.4c-1.9,-1.6 -3.7,-0.3 -3,2.1c0.5,1.4 -0.2,2.4 -3,4c-2.5,1.5 -4.3,3.7 -5.9,7.3c-1.3,2.9 -3.7,6.3 -5.4,7.6c-1.8,1.4 -4.5,3.5 -6.1,4.7c-1.6,1.3 -4.3,2.3 -6,2.3c-1.7,0 -4.8,0.7 -7,1.6c-2.2,0.8 -5,1.4 -6.3,1.2c-2,-0.3 -2.3,-0.9 -2.6,-5.4l-0.3,-5.1l7.3,-3.7c4,-2 8.7,-4.5 10.3,-5.6c1.7,-1 5,-3 7.5,-4.2c2.4,-1.3 5.1,-3.7 6,-5.3c0.9,-1.7 2.5,-3.2 3.6,-3.4c1.8,-0.3 1.8,-0.2 0.2,1.6c-2.2,2.4 -2.3,3.3 -0.4,3.3c0.8,0 1.8,-0.9 2.1,-2c0.3,-1.1 1.1,-2 1.6,-2s0.9,0.9 0.9,2s0.5,2 1,2c1.6,0 1.2,-7.6 -0.5,-9c-3,-2.5 -12.5,2 -12.5,6c0,1.8 -1.9,3 -4.9,3c-0.9,0 -3.4,0.9 -5.6,2c-2.2,1.1 -5.4,2 -7.2,2c-2.4,0 -4.4,1 -7.1,3.5c-3,2.6 -4.1,3.2 -5,2.3c-0.9,-0.9 -2.2,-0.9 -5.2,-0.2c-3.5,1 -4.1,0.9 -6.1,-1.2c-1.2,-1.3 -3.7,-3 -5.5,-3.9c-1.9,-0.9 -3.2,-2 -3,-2.4c0.7,-1.1 -3.1,-19 -4.2,-20.4c-0.6,-0.7 -1.5,-3.8 -2.1,-6.9c-0.8,-4.7 -0.6,-8.7 0.9,-20.5c2.6,-19.9 3.1,-22.6 4.5,-23.8c2.1,-1.8 4.6,-12.5 5.5,-23.3c1,-12.5 0.2,-15.2 -7.4,-24.8c-9.6,-12.2 -8.5,-11.4 -17,-11.4c-5,0 -9,0.6 -11.4,1.7c-3.1,1.4 -7.5,1.6 -27.9,1.6c-19.3,0 -24.3,0.3 -24.7,1.4c-0.3,0.7 0.1,1.3 1,1.3c0.8,0 1.3,0.4 0.9,0.9c-0.3,0.6 0.5,1.5 1.7,2.2l2.2,1.2l-2.4,1c-2.5,0.9 -3.9,1.1 -19.2,2.1l-7.8,0.5l0,-3.4c0,-2.8 1.3,-4.6 8.5,-11.9c4.7,-4.7 9.2,-8.6 9.9,-8.6c0.7,0 1.9,-0.7 2.6,-1.5c0.8,-1 3,-1.5 6.4,-1.5c2.8,0 7.6,-0.9 10.6,-2.1c4.1,-1.5 6.9,-2 11,-1.6c6.2,0.5 14.9,-1.3 23,-4.8c6.9,-3 12.6,-3.9 18.5,-3.1c3.8,0.6 5.9,1.9 12.4,7.8c4.4,3.9 8.7,8.6 9.8,10.5c1.1,2.2 2.3,3.2 3.3,2.9c0.8,-0.3 3.6,-1.2 6.1,-2.1c4.5,-1.6 5,-1.6 12.5,0.5c10.3,2.9 12.2,4 15.4,8.6c2.6,3.9 2.7,3.9 9.8,4.2c7.1,0.3 7.2,0.2 8.2,-2.5c2,-5.4 3.5,-7.6 6.5,-9.5c3.1,-1.9 4.3,-2 16.7,-0.2l4.7,0.6l0.6,-3.8c1.2,-7.1 2.7,-10.6 6.2,-14.4c4.6,-5.2 10.2,-6.5 24.6,-5.6c18.1,1.1 22.3,4.5 21.2,17.3c-0.7,8.6 0,9.3 9.5,9.3c3.4,0 9.2,0.5 12.9,1.1c6.1,1 7.2,0.9 11.4,-0.9c2.5,-1.1 8,-2.6 12.1,-3.2c6.7,-1 8,-0.9 11.8,0.8c2.4,1 5.8,3.3 7.6,5.1l3.2,3.3l0,-52.2l-500,0l0,24.6zm292.4,160.2c2.1,1.5 4.6,3.1 5.5,3.6c1.1,0.6 1.6,2.2 1.6,4.5c0,2.1 0.9,4.9 2.2,6.6c1.4,2 1.9,3.9 1.6,5.8c-0.9,4.4 0.5,7.4 4.2,9.6c2,1.1 3.8,2.9 4.1,3.8c0.4,1 2,4.6 3.6,8.1c1.7,3.5 2.7,6.7 2.2,7.1c-1.2,1.1 -9.6,3.1 -13,3.1c-1.4,0 -5.1,1.4 -8.1,3.1c-3,1.7 -6.8,3.2 -8.6,3.4c-1.8,0.1 -7.7,1.9 -13.2,3.9c-5.5,2 -10.2,3.6 -10.5,3.6c-0.3,0 -0.6,-9.1 -0.8,-20.3c-0.3,-24.3 0.4,-23.1 -12.4,-22.1c-10,0.7 -9.8,0.9 -7.4,-7.2c0.8,-2.7 1.7,-6 2.1,-7.4c0.7,-3.1 7,-8 10.4,-8.1c1.4,0 5.8,-1.1 9.6,-2.4c5.9,-2 8.3,-2.3 15,-1.9c6.6,0.4 8.7,1 11.9,3.2zm17.2,5.6c0.1,0 -0.1,2.5 -0.3,5.3l-0.6,5.3l-2.8,-2.1c-2.2,-1.5 -2.9,-2.8 -2.9,-5.4c0,-3.6 1.3,-4.6 4.5,-3.8c1.1,0.3 2.1,0.6 2.1,0.7zm-71.4,16.1c-0.3,3.9 -0.1,6.5 0.5,6.5c1.7,0 3.3,5 3.3,10.5l0,5.3l-3.1,-1.5c-5.7,-2.8 -10.7,-2.6 -17.3,0.8c-5,2.7 -7.5,3.3 -14.9,3.7c-8.4,0.5 -20.2,-1.2 -19.5,-2.8c0.5,-1 8,-7.4 10.8,-9.1c1.4,-0.9 4.7,-1.9 7.5,-2.4c6.6,-0.9 8.4,-1.9 29.5,-15.8c1.4,-0.9 2.8,-1.6 3.1,-1.6c0.4,-0.1 0.4,2.8 0.1,6.4zm-98.6,5.8c3.2,1.9 10.4,8 10,8.4c-0.2,0.3 -2.3,-0.5 -4.5,-1.7c-2.3,-1.1 -4.6,-1.8 -5.2,-1.5c-0.5,0.4 -0.8,0.1 -0.7,-0.5c0.2,-0.7 -1.7,-2.3 -4.1,-3.6l-4.4,-2.4l3.4,0c1.9,0.1 4.3,0.6 5.5,1.3zm119.8,16.4c0.4,9.8 0.2,17.1 -0.4,19.3c-1.6,5.4 -1.2,26 0.5,29c2,3.5 1.8,4.6 -0.3,2.7c-1,-1 -2.3,-1.7 -2.9,-1.7c-0.6,0 -1.4,-0.7 -1.7,-1.6c-0.3,-0.8 -1.1,-1.2 -1.7,-0.8c-0.8,0.5 -0.4,1.2 1.1,2.4c1.8,1.3 1.9,1.8 0.8,2.3c-2.2,0.8 -7.6,-4.8 -8.3,-8.6c-0.3,-1.7 -0.6,-15.7 -0.8,-31l-0.2,-27.7l13.2,0l0.7,15.7zm62,13.5c2,3.9 2,12.5 0.1,15.8c-0.8,1.4 -1.4,4.2 -1.5,6.2c0,2 -0.5,5.9 -1.2,8.7c-0.9,4.2 -0.8,5.9 0.7,10.8c1,3.2 2.1,6.2 2.6,6.7c0.5,0.6 0.9,2.2 0.9,3.7c0,2.1 -0.7,2.9 -2.7,3.6c-1.6,0.5 -3.4,0.8 -4,0.7c-0.7,-0.1 -1.9,-0.2 -2.7,-0.3c-0.8,0 -1.7,-0.9 -2.1,-2c-0.5,-1.7 -2,-3.5 -9.1,-11.4c-1.4,-1.5 -2.8,-3.9 -3,-5.5c-0.3,-1.5 -1.2,-3.4 -2,-4.2c-1.2,-1.2 -0.9,-1.7 2.9,-3.5c5.1,-2.4 6.3,-5.5 2,-5.5c-1.5,0 -4.4,0.5 -6.4,1c-5.3,1.5 -6.4,4.9 -6.3,19.3l0.1,11.7l-2.6,-3.1c-2.4,-2.9 -3.1,-3.1 -7.6,-2.8l-5,0.4l0.4,-3.9c0.4,-4.2 -3.4,-18.5 -5.4,-20.1c-0.6,-0.6 -1.5,-2 -1.9,-3.1c-0.4,-1.2 -1.5,-3.2 -2.6,-4.4c-3.8,-4.4 -2.7,-6.3 5.3,-8.8c3.9,-1.2 10.6,-2.9 14.7,-3.8c4.4,-0.9 9.4,-2.7 12,-4.4c3.5,-2.2 6.4,-3.1 13,-3.8c4.7,-0.5 8.8,-1 9.2,-1.1c0.3,0 1.4,1.3 2.2,3.1zm-56.9,25c1.7,4.1 3,14.8 1.9,14.8c-1.4,0 -5.3,-13.5 -4.7,-15.9c0.7,-2.8 1.2,-2.7 2.8,1.1zm59.5,10c0,4.5 -0.3,5.9 -1,4.8c-1.5,-2.4 -1,-11 0.6,-11c0.2,0 0.4,2.8 0.4,6.2zm-53,10c0,3.9 -0.2,6.9 -0.4,6.7c-1,-1 -1.5,-13.9 -0.6,-13.9c0.6,0 1,3.2 1,7.2zm12.8,9.9c0.9,1.2 3.1,3 4.7,4l3,1.9l-3.2,0c-2.2,0 -3.3,-0.5 -3.3,-1.5c0,-1.9 -3.1,-3.5 -7.2,-3.5c-3.1,-0.1 -3.2,-0.1 -1.4,-1.5c2.8,-2.1 5.3,-1.9 7.4,0.6zm44.7,35.9c0.4,0.6 0.1,1.8 -0.6,2.7c-0.7,0.8 -1.8,2.5 -2.4,3.6c-0.7,1.5 -2.4,2.4 -5.4,2.9c-2.4,0.4 -6.3,1.9 -8.7,3.3c-3.1,1.8 -4.4,2.2 -4.4,1.2c0,-0.7 0.5,-1.8 1.1,-2.4c0.6,-0.6 1.4,-2.5 1.8,-4.3c0.5,-2.6 1.4,-3.5 4.6,-4.7c8.7,-3.2 13,-3.9 14,-2.3zm-283.9,29.6c0.9,3.1 1.4,5.8 1.1,6c-0.7,0.7 -6.7,-10.2 -6.7,-12.1c0,-1.3 0.4,-1.4 2,-0.5c1.2,0.6 2.6,3.3 3.6,6.6zm24.4,29.2c0,1.5 -3.8,4.4 -4.9,3.7c-0.6,-0.3 -1.1,-1.5 -1.1,-2.6c0,-1.4 0.7,-1.9 3,-1.9c1.7,0 3,0.4 3,0.8zm66.8,78.3c0.2,1.2 -2.7,3.5 -10,7.9c-8.4,5.1 -10.6,6 -12,5.1c-1,-0.6 -4.4,-1.1 -7.5,-1.2c-11.2,-0.2 -11.3,-0.9 -1.1,-6.2c5.6,-2.9 10.7,-4.8 12.8,-4.8c1.9,0 5.1,-0.7 7,-1.4c4.7,-1.9 10.4,-1.5 10.8,0.6z"/>
    <path d="m604,152.05c-1.7,1.2 -5.6,5.5 -8.6,9.7c-5.3,7.5 -15.6,18.2 -20.6,21.6c-4,2.7 -7.4,1.9 -16.7,-3.7c-10.9,-6.6 -13.8,-7.6 -23.3,-8.3c-8.2,-0.6 -6.4,-1.4 -23.5,9.4c-4.5,2.8 -6.1,3.2 -15,3.8c-13.1,0.8 -26.4,-0.8 -33.1,-4.1c-2.9,-1.4 -9,-5.8 -13.6,-9.8c-8.7,-7.7 -12.7,-10.7 -14,-10.7c-0.5,0 -0.8,1.2 -0.8,2.6c0,1.6 1.1,3.5 3.2,5.2c1.8,1.5 5.8,5 8.9,7.8c6.9,6.4 16.7,11.9 23.7,13.3c6.6,1.4 31.5,1.4 36.3,0.1c2,-0.6 7.1,-3.3 11.4,-6.1c9.6,-6.3 12,-7 19.7,-5.8c6.8,1.1 7,1.2 18.6,8.1l8.4,5l5.4,-1.1c3,-0.6 7,-1.8 8.9,-2.7c4.2,-1.9 14.4,-12.6 20.5,-21.3c2.5,-3.5 5.6,-7.3 7.1,-8.3c3.1,-2.3 5.1,-1.7 15,4.8c7.6,4.9 11.4,6.4 16.6,6.4c2.6,0 3.3,-0.4 3.3,-2c0,-1.3 -0.9,-2.2 -2.7,-2.6c-5.8,-1.2 -8.4,-2.4 -14,-6.2c-11.6,-7.9 -15.3,-8.8 -21.1,-5.1zm-254,5.1c-1.6,1.6 -1.5,3.3 0.4,4.8c2.2,1.9 5.4,-1.2 3.8,-3.7c-1.4,-2.2 -2.7,-2.6 -4.2,-1.1zm34.8,9.3c0,1 -1.1,1.5 -3.7,1.6c-2.1,0.1 -5.1,0.5 -6.8,0.8c-2.2,0.6 -0.8,0.9 5.2,1.2c6.2,0.3 8.8,0.9 10.9,2.4c3.6,2.7 4.6,5.6 2.9,8.8c-1.7,3.4 0.2,5.5 3.4,3.7c1.6,-0.8 2.1,-2.1 2.1,-5.1c0,-5.4 -2.3,-9.4 -7,-12.4c-4.5,-2.8 -7,-3.2 -7,-1z"/>
    <path d="m385.8,173.75c0,2.9 2.5,5.6 4.4,4.9c1.5,-0.6 1.5,-0.9 0.1,-3.7c-1.7,-3.3 -4.5,-4 -4.5,-1.2zm236.3,63.9c-2,0.7 -1.5,2.9 1,4.6c2.1,1.5 2,1.5 -1.7,0.7c-2.2,-0.5 -4.4,-0.6 -4.9,-0.3c-1.8,1.1 0,3.6 3.8,4.9c6.2,2.1 6.7,1.9 6,-2.4c-1.4,-8.7 -1.4,-8.7 -4.2,-7.5zm11.1,9.8c-0.9,2.2 1.3,4.3 5.4,5.1c2.9,0.6 3.2,0.4 3.2,-1.9c0,-1.8 -0.7,-2.6 -2.4,-3.1c-1.3,-0.3 -3.1,-0.9 -4,-1.2c-1,-0.4 -1.8,0 -2.2,1.1zm7,18.9c-0.3,1.4 -0.3,3.4 0.1,4.5c0.6,1.9 0.2,2.1 -2.8,2.1s-3.5,0.4 -4,2.7c-0.7,3.8 -0.2,4.3 4.4,4.3l3.9,0l0,-8c0,-8.2 -0.5,-9.9 -1.6,-5.6zm-79.4,3.2c-3,0.8 -7.9,2.8 -10.8,4.5c-3,1.7 -8.8,3.9 -12.9,4.9c-6.6,1.7 -9,1.9 -21.2,1c-7.6,-0.5 -14.9,-1.1 -16.2,-1.5c-3.2,-0.7 -5.3,0.7 -4.5,3.3c0.8,2.5 6,3.1 29.7,3.4l16.6,0.3l4.3,-3c8,-5.6 11.1,-7.2 16.6,-8.4l5.5,-1.3l13.7,6.7c10.4,5.1 15.1,6.8 19.5,7.2c5.6,0.6 5.7,0.5 5.7,-2.1c0,-1.6 -0.6,-2.6 -1.4,-2.6c-0.8,0 -6.5,-2.5 -12.7,-5.6c-10.4,-5.3 -19.6,-8.4 -24.4,-8.3c-1.1,0 -4.5,0.7 -7.5,1.5zm58.5,5.4c-1.2,0.4 -2.6,1.4 -3.2,2.1c-1.4,1.7 -2.8,8.9 -1.8,8.9c1.3,0 11.5,-5.2 12,-6.1c0.3,-0.4 0.3,-2 -0.1,-3.4c-0.7,-2.6 -3,-3.2 -6.9,-1.5zm-100.1,34.4c-5.2,5.3 -13.3,8.6 -20.9,8.6c-5.1,0 -6.7,0.4 -7.2,1.6c-0.3,0.9 0,2 0.8,2.5c1.9,1.2 8.6,1.1 9.4,-0.1c0.3,-0.6 2.1,-1 3.9,-1c4.7,0 11.5,-3.3 15.5,-7.4c5,-5.2 8.4,-4.9 14.1,1c14,14.4 29.6,20.9 53,22c12.2,0.6 17.3,-0.2 17.8,-2.8c0.3,-1.3 -2,-1.6 -16,-2.1c-18.8,-0.6 -25,-2 -39.3,-9.1c-11.7,-5.8 -17.7,-10.8 -16.9,-14.2c0.6,-2.3 0.5,-2.4 -5.2,-2.3c-5.2,0.2 -6.3,0.6 -9,3.3zm115.4,3.3c-6.7,0.7 -4,3.3 3.3,3.3c3.2,0 3.9,-0.3 3.9,-2c0,-1.3 -0.6,-1.9 -1.7,-1.8c-1,0.1 -3.5,0.3 -5.5,0.5zm-12.6,5.9c-0.1,0.6 -2.4,3.3 -5.2,6c-4.5,4.4 -6.5,8.4 -4.1,8.4c0.5,0 3,-1.9 5.6,-4.3c4.2,-3.7 4.6,-4.6 4.2,-7.7c-0.2,-1.9 -0.5,-3 -0.5,-2.4zm-208.3,56.6c-0.2,23.8 -0.3,24.7 -2.8,26.5c-1.2,0.8 -2.1,1.8 -2.1,2.3c0,1.7 -2.1,6.3 -2.6,5.7c-0.7,-0.6 2.3,-9.6 3.8,-11.4c0.7,-0.9 -0.4,-2.8 -4.2,-7.1c-2.8,-3.3 -7,-8.8 -9.3,-12.3c-2.4,-3.5 -6.5,-7.9 -9.2,-9.9c-4.3,-3 -5.8,-3.5 -11,-3.6c-3.3,-0.1 -7.3,-0.6 -8.8,-1.3c-1.6,-0.6 -5.4,-1.1 -8.6,-1.1c-8.4,0 -9.8,2.2 -6.1,9.5c1.1,2.2 2,4.6 2,5.3c0,0.8 1.7,3.3 3.8,5.6c2,2.2 4.6,5.3 5.7,6.7c1.2,1.5 3.6,3.4 5.4,4.3c3.9,2.1 6.1,6.8 6.1,13.3c0,3.9 0.6,5.6 3,8.5c1.6,2 3.9,5.7 5,8.2l1.9,4.6l4.8,-3.6c2.5,-1.9 8.8,-5.6 13.7,-8.2c7.9,-4 8.8,-4.6 6.6,-5.2c-1.7,-0.4 -2.1,-0.8 -1.2,-1.4c0.6,-0.4 1.2,-1.6 1.2,-2.6c0,-1.1 1.1,-2.9 2.4,-4.2c1.4,-1.3 2.6,-3.7 2.8,-5.3c0.2,-2.5 0.8,-3 3.3,-3.3c1.7,-0.2 3.9,-1.4 5.2,-2.9c2.1,-2.5 2.2,-2.6 7,-1.3c2.6,0.8 5.8,2 7.1,2.8c2.2,1.5 2.3,1.5 0.4,3.6c-3.1,3.4 -3.5,4.7 -1.5,3.9c2.5,-0.8 6.3,-4.4 6.3,-5.9c0,-1.8 -6.6,-6.4 -9.2,-6.4c-3,0 -4.8,-1.7 -4.8,-4.7c0,-1.3 -0.4,-2.3 -1,-2.3c-0.5,0 -1,1 -1,2.2c0,2.9 -6,7.8 -9.4,7.8l-2.6,0l0,-17.5c0,-11 -0.4,-17.5 -1,-17.5s-1.1,6.8 -1.1,18.2zm114.1,3.8c-5.2,2.1 -5.3,2.7 -1.2,10.8c2.4,5 2.8,5.3 5.7,4.8c2.6,-0.4 8,-1.1 25.3,-3.2c5.4,-0.7 5.1,-1.9 -1.9,-6.6c-6,-4.1 -8,-4.6 -10.3,-2.3c-1.4,1.4 -2.1,1.2 -6.8,-2c-2.9,-1.9 -5.5,-3.5 -5.8,-3.4c-0.3,0 -2.5,0.8 -5,1.9zm-37.5,17c-1,1.7 0.7,6 2.4,6c3.5,0 4.3,-1.5 2.1,-4.3c-2.3,-2.8 -3.5,-3.3 -4.5,-1.7zm66,2.1c-3.3,0.5 -9.7,1.4 -14.2,2c-4.6,0.6 -8.3,1.5 -8.3,1.9c0,0.4 0.7,2.4 1.5,4.4l1.5,3.6l24.5,0c13.5,0 24.5,-0.4 24.5,-0.8c0,-1.5 -6,-9.3 -7.7,-9.9c-0.8,-0.3 -2.4,-0.1 -3.3,0.5c-1.5,0.9 -1.9,0.7 -2.3,-0.9c-0.4,-1.6 -1.3,-1.9 -5.4,-1.8c-2.6,0.1 -7.5,0.6 -10.8,1zm-78.7,2.1c-1.4,1.1 -5.9,2.8 -10,3.8c-5.1,1.2 -7.4,2.2 -7.6,3.3c-0.5,2.3 2.1,2.2 13.5,-0.5c9.2,-2.2 9.4,-2.3 8.8,-4.8c-0.9,-3.7 -1.7,-4 -4.7,-1.8zm-0.3,12.5c-1.1,0.2 -4.7,1.1 -8.1,2l-6.1,1.7l2.6,4.3l2.6,4.3l7.5,-0.6c4.1,-0.4 7.8,-0.8 8.3,-1.1c0.4,-0.2 0.7,-2.9 0.7,-5.9c0,-5.3 -0.1,-5.4 -2.7,-5.3c-1.6,0.1 -3.7,0.3 -4.8,0.6zm13.9,2.6c-0.3,0.8 -0.4,3 -0.2,4.9l0.3,3.3l14,0l0.3,-4.3c0.3,-3.9 0.1,-4.2 -2.1,-4.2c-1.3,0 -4.5,-0.3 -7,-0.6c-3.7,-0.5 -4.8,-0.3 -5.3,0.9zm46.6,3.7c0,1.3 0.7,2 2,2c2.2,0 13.1,-2.7 13.8,-3.5c0.3,-0.3 -3.1,-0.5 -7.6,-0.5c-7.5,0 -8.2,0.2 -8.2,2zm80.3,4.7l-7.3,0.4l0,13.2c0,22.5 2.2,55.8 3.8,57.3c2,2.1 8.9,1.8 9.6,-0.4c2.3,-7.8 4.1,-33.4 4.1,-59.2c0,-9.5 -0.3,-11.5 -1.5,-11.5c-0.8,-0.1 -4.8,0 -8.7,0.2zm17.4,0c-0.2,0.5 -0.5,6 -0.6,12.3c-0.5,30.8 -1.5,47.4 -3.3,55.2c-0.7,2.6 -0.9,5 -0.7,5.3c0.3,0.2 2.9,-0.5 5.7,-1.7l5.2,-2.2l0,-34.2c0,-30.2 -0.2,-34.3 -1.6,-34.8c-2.1,-0.8 -4.2,-0.8 -4.7,0.1zm-85.7,2.3c-5.8,1.5 -6.5,2 -6.2,4l0.4,2.2l-15.9,-0.3l-15.8,-0.4l-0.4,22c-0.3,12.1 -0.5,27.6 -0.5,34.5l-0.1,12.5l31.5,0c17.3,0 38.6,-0.4 47.2,-0.9l15.6,-0.9l0.7,-5.6c0.3,-3.1 0,-10.6 -0.8,-16.6c-0.9,-7.3 -1.3,-17.9 -1,-31.8l0.4,-20.7l-24.3,0.1c-19.9,0.1 -25.5,0.4 -30.8,1.9zm-126,0.2c-7.1,0.9 -16.9,4.2 -15.8,5.3c0.3,0.3 4.7,0.1 9.9,-0.5c14.2,-1.6 16,-2 15.7,-3.8c-0.4,-2 -1,-2.1 -9.8,-1zm-29,4.8l-3.5,3l4.8,-2.6c2.6,-1.4 4.7,-2.8 4.7,-3c0,-1.3 -3,0 -6,2.6zm75.2,1c-1.2,0.5 -10.2,1.7 -20,2.5c-9.7,0.9 -19.9,2 -22.7,2.5c-2.7,0.5 -10.6,1.2 -17.5,1.6c-14.9,0.8 -18.9,2.4 -19.1,7.7c-0.2,7.3 0.3,12.5 1.5,16.7c1.8,5.9 3.5,19.2 4,30.4l0.4,9l3.6,1.3c5.6,1.9 63.5,3 74.8,1.4l8.7,-1.3l0.5,-6.6c0.3,-3.7 1.3,-10.3 2.1,-14.7c2.4,-13.5 2.8,-28.7 1,-39.9c-0.9,-5.5 -1.8,-10.3 -2.1,-10.8c-0.7,-1.1 -12.3,-0.9 -15.2,0.2zm21.8,-0.3c0,0.4 0.7,3.3 1.5,6.3c1.9,6.9 2.2,38 0.5,42.5c-0.7,1.7 -1.4,7.7 -1.7,13.4l-0.6,10.4l5.8,-0.6c3.2,-0.3 6.2,-1.2 6.6,-1.9c0.4,-0.7 0.9,-11.4 1,-23.8c0.1,-12.4 0.2,-27.9 0.3,-34.5l0.1,-12l-6.7,-0.3c-3.8,-0.2 -6.8,0.1 -6.8,0.5zm144,71c-5.4,2.2 -5.5,2.3 -5.3,5.9c0.2,2.1 0.8,4.1 1.5,4.6c1.1,0.6 8.6,0.1 9.6,-0.7c0.2,-0.2 0.2,-2.9 0,-6.1l-0.3,-5.9l-5.5,2.2zm-55.5,4.3c-3.3,0.4 -19.8,0.8 -36.7,0.9l-30.8,0.1l0,5l19.1,0c10.5,0 19.8,0.4 20.8,1c1.3,0.6 4.9,0.2 12,-1.5c7.4,-1.8 13,-2.5 20.4,-2.5c13.7,0 20.7,-0.9 20.7,-2.6c0,-1.1 -2.1,-1.4 -9.7,-1.3c-5.4,0.1 -12.5,0.5 -15.8,0.9zm35.8,-0.3c-4.2,0.8 -2.4,2.4 2.5,2.1c2.6,-0.2 4.6,-0.8 4.5,-1.3c-0.3,-1.1 -3.6,-1.5 -7,-0.8zm-219.9,4.7c-0.8,2.1 -0.1,15.3 0.9,16.2c0.8,0.8 7.4,-1.1 12.7,-3.6c2.4,-1.2 5.8,-1.7 10.8,-1.6c7,0.1 7.3,0 7.9,-2.4c0.3,-1.4 1.3,-3.3 2.1,-4.3c0.8,-0.9 1.3,-2 0.9,-2.3c-0.3,-0.3 -7.5,-1 -15.9,-1.4c-8.4,-0.4 -16.1,-1.1 -17,-1.5c-1.2,-0.5 -2,-0.2 -2.4,0.9zm99.4,-0.7c-2.1,0.2 -3.8,0.9 -3.8,1.4c0,1.5 11.3,0.7 11.8,-0.9c0.4,-1.2 -0.4,-1.3 -8,-0.5zm-17.3,1.3c-2.8,0.7 -2.7,0.8 1.3,0.9c2.3,0 4.2,-0.4 4.2,-0.9c0,-1.1 -1.1,-1.1 -5.5,0zm-41.3,8.5c0.3,1.6 1.5,2 9.3,2.3c8.6,0.4 9.1,0.5 11.5,3.4c3.2,3.8 7.5,4.1 10.2,0.8c1,-1.2 1.8,-2.8 1.8,-3.6c0,-1 1.3,-1.4 4.3,-1.5c2.3,-0.1 5.6,-0.5 7.2,-0.9c1.8,-0.5 -3.5,-0.8 -13.1,-0.9c-8.9,0 -19.6,-0.4 -23.9,-0.8c-7.2,-0.6 -7.7,-0.5 -7.3,1.2zm55.8,0.5c0,1.2 3.4,1.2 7,0c2,-0.7 1.6,-0.8 -2.2,-0.9c-2.7,-0.1 -4.8,0.3 -4.8,0.9zm17.7,-0.3c-2.1,2.1 -0.1,2.5 8.1,1.8c4.8,-0.4 10.7,-0.9 13.1,-1.1c9,-0.6 5,-1.4 -7.6,-1.4c-7.1,0 -13.3,0.3 -13.6,0.7z"/>
   </g>
   <g stroke-width="0.4" stroke="#7C0000" fill="#7C0000">
    <path d="m534.8,68.05c-7,2.1 -11.8,9 -13.5,19.3l-0.6,3.8l-4.7,-0.6c-12.4,-1.8 -13.6,-1.7 -16.7,0.2c-3,1.9 -4.5,4.1 -6.5,9.5c-1,2.7 -1.1,2.8 -8.2,2.5c-7.1,-0.3 -7.2,-0.3 -9.8,-4.2c-3.2,-4.6 -5.1,-5.7 -15.4,-8.6c-7.5,-2.1 -8,-2.1 -12.5,-0.5c-2.5,0.9 -5.3,1.8 -6.1,2.1c-1,0.3 -2.2,-0.7 -3.3,-2.9c-1.1,-1.9 -5.4,-6.6 -9.8,-10.5c-6.5,-5.9 -8.6,-7.2 -12.4,-7.8c-5.9,-0.8 -11.6,0.1 -18.5,3.1c-8.1,3.5 -16.8,5.3 -23,4.8c-4.1,-0.4 -6.9,0.1 -11,1.6c-3,1.2 -7.8,2.1 -10.6,2.1c-3.4,0 -5.6,0.5 -6.4,1.5c-0.7,0.8 -1.9,1.5 -2.6,1.5c-0.7,0 -5.2,3.9 -9.9,8.6c-7.3,7.4 -8.5,9.1 -8.5,12c0,2.7 0.4,3.4 2,3.4c1.1,0 2,-0.3 2,-0.8c0,-0.4 2.6,-0.7 5.8,-0.7c3.1,0.1 6.2,-0.3 6.9,-0.8c0.7,-0.5 2,-0.4 3.3,0.3c3.3,1.7 6.2,0.3 5.8,-2.8c-0.2,-1.5 -0.8,-2.9 -1.5,-3.2c-0.7,-0.3 -0.9,-1 -0.5,-1.7c0.6,-0.9 4.4,-1.2 12.7,-1.2c35,0.1 41.5,-0.2 38.6,-2.1c-0.8,-0.4 3.2,-0.9 9.3,-0.9c12.2,-0.2 10.4,-1.2 20,11c7.7,9.8 8,10.9 7.7,24.4c-0.1,6.6 -0.6,12.4 -1.1,13c-0.4,0.5 -1.4,3 -2.1,5.5c-0.7,2.5 -1.7,4.9 -2.4,5.5c-1,0.9 -2.5,8.1 -4.1,19.5c-0.3,2.5 -0.6,8 -0.7,12.2c-0.1,4.4 -0.6,7.1 -1,6.5c-0.5,-0.7 -0.6,-0.2 -0.3,1.3c0.3,1.4 0.6,3.6 0.7,5c0,2.3 0.1,2.4 1,0.5c0.7,-1.6 0.8,-1.2 0.5,1.6c-0.2,2 0,4.1 0.5,4.6c1.2,1.2 5,19.3 4.3,20.4c-0.2,0.4 1.1,1.5 3,2.4c1.8,0.9 4.3,2.6 5.5,3.9c2,2.1 2.6,2.2 6.1,1.2c3,-0.7 4.3,-0.7 5.2,0.2c0.9,0.9 2,0.3 5,-2.3c2.7,-2.5 4.7,-3.5 7.1,-3.5c1.8,0 5,-0.9 7.2,-2s4.7,-2 5.6,-2c3,0 4.9,-1.2 4.9,-3c0,-4 9.5,-8.5 12.5,-6c0.8,0.7 1.5,0.9 1.5,0.4c0,-0.4 1.1,0.3 2.5,1.6c1.3,1.2 2.2,2.6 2,3.1c-0.3,0.4 -0.1,1 0.5,1.4c1.8,1.1 1.1,4.5 -1.5,6.9c-1.4,1.3 -2.5,2.6 -2.5,2.9c0,1.1 7,3.7 10.2,3.7c1.8,0.1 4.4,0.7 5.8,1.5c3.1,1.8 8.4,1.9 11.3,0.3c1.2,-0.7 4.7,-1.5 7.7,-1.9c3,-0.4 7.5,-1.5 10,-2.4c6,-2.3 16.6,-3 22.8,-1.5c2.8,0.6 7.2,2.5 9.7,4.1c2.5,1.6 5,2.7 5.5,2.4c0.4,-0.2 1.4,0.2 2.1,1.1c0.7,0.8 3.1,2.5 5.3,3.6c3.1,1.6 4.9,1.9 8.5,1.3c11.5,-1.7 12.3,-1.7 13.1,-0.4c0.9,1.4 0.5,13.6 -1,31.4c-1.1,12.5 -1.9,31.5 -2.1,47.2c0,6.4 -0.4,9.3 -1.2,9.3c-0.9,0 -0.9,0.2 -0.1,0.8c0.8,0.4 1.1,3.4 1,7.7l-0.1,6.9l-3.5,0.9c-9.4,2.4 -38.5,11.7 -55.4,17.8c-10.4,3.8 -19.7,6.9 -20.6,6.9c-1,0 -2.3,0.7 -3,1.5c-0.7,0.8 -2.2,1.5 -3.3,1.5c-1.1,0 -7.6,2.7 -14.5,6.1c-6.8,3.3 -12.5,5.9 -12.7,5.7c-0.1,-0.2 0.2,-3.9 0.7,-8.3c1.1,-9.6 0.4,-28 -1.6,-39c-1.5,-8.3 -1.1,-16.5 0.8,-16.5c0.6,0 0.4,-0.5 -0.4,-1c-1.2,-0.8 -1.3,-1.3 -0.3,-2.9c0.9,-1.5 0.9,-2.1 0.1,-2.3c-0.9,-0.3 -0.6,-3.9 1.1,-13.1c1.3,-6.9 2.4,-15.2 2.5,-18.4c0,-3.2 0.6,-6.1 1.1,-6.5c0.6,-0.5 0.5,-0.8 -0.3,-0.8c-1.1,0 -1.3,-2.2 -1.1,-10.3c0.1,-5.6 -0.4,-14.8 -1.1,-20.5c-1.2,-8.5 -1.2,-10.5 -0.1,-11.1c1,-0.6 1,-1 0.1,-1.6c-0.6,-0.4 -1.2,-0.5 -1.3,-0.4c-5,9.6 -5.9,12.1 -5.2,15.2c1.1,5 1.6,31.5 0.6,32.1c-0.5,0.3 -0.5,2.1 -0.1,4.2c0.6,2.4 0.2,6.5 -1.1,12.7c-1,5.1 -1.9,11.1 -1.9,13.4c0,4 -0.2,4.2 -3.2,4.6l-3.3,0.4l3.3,0.1c1.7,0.1 3.2,0.5 3.2,0.9c0,1.6 -1.6,3.1 -3.5,3.6s-1.9,0.5 0.1,0.6c1.9,0.1 2.2,1.3 3.9,13.8c1,7.6 2,19 2.2,25.3c0.4,10.9 0.3,11.9 -2.6,20c-1.7,4.6 -3.6,8.7 -4.2,9c-0.6,0.4 -3.2,0.5 -5.8,0.2c-3.8,-0.3 -6.3,0.3 -13.6,3.3c-10.1,4.3 -25.7,8.7 -24.8,7.1c0.4,-0.6 0,-0.5 -0.8,0.1c-0.9,0.7 -3.4,1.9 -5.7,2.7c-2.3,0.8 -7.5,3.5 -11.5,5.9c-4,2.5 -10.9,6.3 -15.2,8.5c-4.4,2.2 -10,5.5 -12.5,7.3c-4,2.9 -5,3.2 -11.1,3c-3.9,-0.1 -7,0.2 -7.4,0.8c-0.4,0.7 1.4,1.1 5.5,1.1l6.2,0l-3.1,3.5c-3.9,4.5 -4,7.9 -0.1,13.6c1.6,2.4 3,5.6 3,7.1s0.7,5.7 1.6,9.5c2.9,12.7 3.5,17.8 4,36.5c0.3,15.9 0.1,20.2 -1.5,28c-1.1,5.1 -2.1,11.7 -2.4,14.5l-0.4,5.3l8.7,0l0,-3.8c0,-2 0.5,-5.3 1.2,-7.2c0.6,-1.9 1.2,-8.7 1.2,-15c0.1,-10.9 0.2,-11.5 2.1,-11.2c1.1,0.2 8.9,0.7 17.3,1.1c8.4,0.5 15.6,1.2 15.9,1.5c0.4,0.3 -0.1,1.4 -1,2.3c-0.8,1 -2,4.4 -2.6,7.7c-0.6,3.2 -1.5,6.4 -2,7c-1.8,2.2 -3.1,9.5 -2.5,13.5l0.7,4.1l6.3,0c4.8,0 6.4,-0.3 6.4,-1.4c0,-0.8 0.5,-6 1.1,-11.7c0.8,-7.9 0.7,-10.8 -0.2,-12.6c-0.7,-1.3 -1,-2.5 -0.8,-2.7c0.2,-0.2 11,-0.1 23.9,0.2c12.9,0.3 22.2,0.9 20.5,1.3c-2.9,0.6 -2.9,0.7 -0.4,0.8c1.5,0 2.9,0.7 3.2,1.4c0.6,1.7 -0.8,20.7 -1.8,22.9c-0.6,1.6 -0.1,1.8 3.9,1.8c5.4,0 5.2,0.6 6.2,-16.3l0.6,-11.7l9.1,0l-0.7,3.7c-0.4,2.1 -0.9,8.4 -1.3,14l-0.6,10.3l9.5,0l-0.6,-3.5c-0.4,-1.9 -0.2,-7.2 0.5,-11.8c0.6,-4.5 1.2,-9.1 1.3,-10.2c0.1,-1.8 0.9,-2 8.6,-2.3c4.7,-0.2 12.6,0 17.7,0.3l9.1,0.7l0.5,3.1c0.2,1.8 1.2,6.1 2.1,9.7c0.9,3.6 1.8,8.2 2.1,10.2c0.6,3.7 0.7,3.8 4.7,3.8l4.1,0l-0.6,-9.3c-0.3,-5 -0.8,-9.9 -1.2,-10.8c-0.5,-1.2 0.9,-1.9 7.2,-3.3c14,-3.1 16.7,-3.6 26.3,-4.6c15.7,-1.6 13.9,-3.2 14.2,13.3l0.3,14.2l4.9,0.3l4.8,0.3l-0.7,-4.8c-0.3,-2.6 -0.9,-9.1 -1.1,-14.4l-0.5,-9.7l5,-0.3c3.8,-0.3 5.2,0 5.7,1.1c0.4,0.8 0.9,7.5 1.2,14.8l0.5,13.2l7.7,0l0,-10.8c0,-5.9 -0.7,-15.4 -1.5,-21.1c-0.8,-5.7 -1.3,-10.7 -1,-10.9c0.3,-0.3 2.9,-1.5 5.7,-2.6c5,-2 5.3,-2.3 5.6,-5.9c0.3,-3.6 0.2,-3.8 -2,-3.2c-1.3,0.4 -3.6,1.4 -5.1,2.2c-1.6,0.8 -3.2,1.2 -3.5,0.9c-0.3,-0.4 -0.1,-2.8 0.6,-5.4c1.8,-7.9 2.8,-24 3.3,-55.1c0.2,-10.6 0.5,-12.4 1.9,-12.8c1.4,-0.4 1.8,-2.2 2.4,-8.6c0.3,-4.5 0.6,-11 0.6,-14.5c0,-3.4 0.4,-6.2 1,-6.2s1,-2.7 1,-6c0,-4.6 -0.3,-6 -1.5,-6c-0.9,0 -1.6,-1.4 -2,-3.8c-0.6,-3.9 -3.4,-19.1 -4.2,-23c-0.5,-2 -0.2,-2.2 3.6,-2.2c4,0 4.1,-0.1 4.1,-3.5c0,-3.5 0,-3.5 -4.5,-3.5c-4,0 -4.5,-0.2 -4.5,-2.3c0,-2.4 2.8,-5.6 6.8,-7.6c1.6,-0.9 2.2,-2.1 2.2,-4.6c0,-1.9 -0.2,-3.5 -0.5,-3.5c-0.2,0 -1.9,0.9 -3.7,2c-4.2,2.6 -4.8,2.5 -4.8,-0.4c0,-1.3 -0.7,-2.9 -1.5,-3.6c-1.7,-1.4 -2,-7.6 -0.5,-11.4c0.6,-1.8 0.6,-2.6 -0.1,-2.6c-1.1,0 -0.6,-7.5 1.5,-23.6c0.7,-5.1 1.1,-15.1 0.8,-22.7c-0.3,-10.3 -0.1,-13.7 0.8,-13.7c1,0 1,-0.3 0,-1.5c-1.6,-1.9 -0.5,-4.9 1.6,-4.1c0.9,0.3 2.7,0.9 4,1.2l2.4,0.6l0,-80.2l-3.3,0c-5.2,0 -9,-1.5 -16.6,-6.4c-9.9,-6.5 -11.9,-7.1 -15,-4.8c-1.5,1 -4.6,4.8 -7.1,8.3c-6.1,8.7 -16.3,19.4 -20.5,21.3c-1.9,0.9 -5.9,2.1 -8.9,2.7l-5.4,1.1l-8.4,-5c-11.6,-6.9 -11.8,-7 -18.6,-8.1c-7.7,-1.2 -10.1,-0.5 -19.7,5.8c-4.3,2.8 -9.4,5.5 -11.4,6.1c-4.8,1.3 -29.7,1.3 -36.3,-0.1c-7,-1.4 -16.8,-6.9 -23.7,-13.3c-3.1,-2.8 -7.1,-6.3 -8.9,-7.8c-2.1,-1.7 -3.2,-3.6 -3.2,-5.2c0,-1.4 0.3,-2.6 0.8,-2.6c1.3,0 5.3,3 14,10.7c4.6,4 10.7,8.4 13.6,9.8c6.7,3.3 20,4.9 33.1,4.1c8.9,-0.6 10.5,-1 15,-3.8c17.1,-10.8 15.3,-10 23.5,-9.4c9.5,0.7 12.4,1.7 23.3,8.3c9.3,5.6 12.7,6.4 16.7,3.7c5.1,-3.4 15.3,-14.1 20.6,-21.6c10.1,-14.3 14.4,-15 29.7,-4.6c5.6,3.8 8.2,5 14,6.2l2.7,0.6l0,-63.8l-3.2,-3.3c-1.8,-1.8 -5.2,-4.1 -7.6,-5.1c-3.8,-1.7 -5.1,-1.8 -11.8,-0.8c-4.1,0.6 -9.6,2.1 -12.1,3.2c-4.2,1.8 -5.3,1.9 -11.4,0.9c-3.7,-0.6 -9.5,-1.1 -12.9,-1.1c-9.5,0 -10.2,-0.7 -9.5,-9.3c0.7,-8.5 -1,-12.3 -6.8,-15c-4.3,-2.1 -26.4,-3.2 -31.7,-1.6zm90.4,171.1c1.6,7.5 1.6,9.8 0.4,9.9c-1,0 -1,0.2 0,0.6c2,0.8 1.7,20.7 -0.4,22.7c-0.8,0.9 -1.1,1.6 -0.6,1.6c1.2,0 2.5,4.7 1.6,6.1c-0.3,0.6 -0.8,3.1 -1,5.7c-0.2,2.6 -0.8,10.5 -1.4,17.7c-0.5,7.1 -1,14.8 -1,17.1c0.1,2.3 -0.5,4.6 -1.3,5.2c-0.9,0.8 -1.3,3.2 -1.2,7.8c0.1,6.4 0,6.7 -2.9,8.5c-5.2,3.2 -5.6,2.7 -5.5,-5.4c0.1,-3.9 0.6,-7.8 1.3,-8.6c0.8,-1.2 0.8,-1.3 -0.2,-0.7c-1,0.6 -1.1,-2.2 -0.5,-14.1c0.4,-8.1 0.6,-17.4 0.5,-20.6c-0.1,-3.1 0.2,-5.7 0.6,-5.7c0.4,0 0.8,-1.8 0.9,-4c0,-2.2 0.7,-4.8 1.5,-5.7c1,-1.3 1,-1.5 0,-0.9s-1.1,-1.4 -0.6,-10.1c0.4,-5.9 0.7,-13.9 0.8,-17.6c0.1,-4.7 0.5,-7.1 1.6,-7.7c0.8,-0.5 1.8,-0.6 2.2,-0.4c0.4,0.3 0.8,-0.1 0.8,-1c0,-1.3 1.3,-2.3 3.2,-2.5c0.4,-0.1 1,0.9 1.2,2.1zm-1.4,117.8c0,2.2 0.7,8.1 1.6,13c0.8,5 1.4,10.3 1.2,11.8c-0.3,2.6 -0.6,2.7 -5.8,2.7l-5.5,0l-0.6,-8c-0.4,-4.4 -1,-11.5 -1.4,-15.8l-0.8,-7.7l11.3,0l0,4zm-17.5,0.7c0.3,2.1 1,6 1.5,8.6c1.2,5.8 1.3,17.4 0.2,18.1c-1.2,0.7 -18.8,3.4 -29.7,4.6c-5.5,0.6 -11.8,1.2 -14,1.5c-2.2,0.3 -8.3,0.9 -13.5,1.5c-5.2,0.6 -14.2,1.9 -20,3c-25.5,4.6 -29.6,5.4 -32,5.7c-1.4,0.1 -3.7,0.5 -5.1,0.9c-2.3,0.5 -2.7,0.2 -3.3,-2.2c-0.4,-1.5 -0.3,-3 0.1,-3.5c0.4,-0.4 6.7,-3.6 13.8,-7.2c12.2,-6.1 26.3,-11.4 29.3,-11.1c0.7,0.1 1.1,-0.1 0.7,-0.4c-0.7,-0.8 18,-7.5 43.5,-15.8c11.3,-3.6 21,-6.7 21.5,-6.9c0.6,-0.2 2.2,-0.4 3.7,-0.4c2.4,-0.1 2.8,0.4 3.3,3.6zm20,51.3c0,9.7 0.4,13.7 1.2,14.3c1.3,0.8 1.2,8.7 -0.2,44.7c-0.5,11.2 -1.6,21.3 -3.1,26.2c-0.7,2.2 -7.6,2.5 -9.6,0.4c-1.1,-1 -1.8,-7.4 -2.7,-23.7c-1.9,-33.6 -0.4,-70.5 3.1,-74.6c0.7,-0.9 2.8,-1.3 6.2,-1.1l5.1,0.3l0,13.5zm-18.9,-10.8c-0.3,1.3 -0.9,4.2 -1.2,6.5l-0.7,4.2l-6.2,0.6c-10.1,1.1 -92.9,-0.6 -94.3,-1.9c-0.6,-0.7 9.7,-2.6 13.7,-2.6c4.9,0 15.1,-2.1 15.1,-3c0,-0.5 3.9,-1.3 8.8,-1.9c4.8,-0.7 11.7,-1.6 15.4,-2.1c10.7,-1.6 13.9,-1.3 14.5,1c0.4,1.4 0.9,1.7 1.7,1.1c0.6,-0.5 2.7,-0.9 4.6,-1c1.9,0 7.6,-0.7 12.5,-1.5c5,-0.7 10.7,-1.4 12.9,-1.5c3.5,-0.1 3.8,0.1 3.2,2.1zm-125.1,3.8c0.6,2.5 0.4,2.6 -8.8,4.8c-5.1,1.2 -10.7,2.2 -12.3,2.2c-1.6,0 -3.9,0.7 -5.1,1.5c-2.2,1.5 -19.5,6.5 -22.3,6.4c-0.8,0 0.5,-0.8 3,-1.9c2.5,-1 7.6,-3.5 11.4,-5.5c3.8,-2.1 8.7,-3.9 11,-4.1c7.4,-0.7 14.8,-2.7 18,-4.9c3.4,-2.4 4.2,-2.2 5.1,1.5zm2.3,15.7l-0.3,5.7l-9.1,1.2c-5,0.6 -9.6,1.4 -10.2,1.7c-0.6,0.4 -6.4,1 -12.9,1.3c-13.2,0.6 -15.8,0.8 -25.8,2.3c-11.7,1.7 -18.5,2.3 -18.5,1.6c0,-0.3 1.9,-1.4 4.3,-2.5c4,-1.8 10,-2.8 19.7,-3.4c5.7,-0.4 15.4,-3.1 20.3,-5.8c2.1,-1.1 5.6,-2.1 7.7,-2.2c2.1,0 3.6,-0.3 3.5,-0.6c-0.6,-0.9 14,-4.7 18.8,-4.9c2.8,-0.1 2.8,-0.1 2.5,5.6zm18.9,-2.7c2.2,0 2.4,0.3 2.1,4.2l-0.3,4.3l-14,0l-0.3,-3.3c-0.6,-5.7 0.2,-6.6 5.5,-5.8c2.5,0.3 5.7,0.6 7,0.6zm33,1.9c0.2,0.3 4.2,0.5 9,0.3c4.9,-0.2 8.5,-0.1 8.2,0.3c-0.7,0.7 -13.3,4 -21.1,5.6c-2.6,0.6 -8.2,0.9 -12.5,0.7l-7.7,-0.3l-0.4,-4.2l-0.3,-4.2l12.3,0.6c6.8,0.3 12.4,0.9 12.5,1.2zm68,27.8c-0.3,13.9 0.1,24.5 1,31.8c0.8,6 1.1,13.5 0.8,16.6l-0.7,5.6l-15.6,0.9c-8.6,0.5 -29.9,0.9 -47.2,0.9l-31.5,0l0.1,-12.5c0,-6.9 0.2,-22.4 0.5,-34.5l0.4,-22l10,0.2c6,0.1 9,-0.1 7.5,-0.6c-2,-0.6 -1.3,-0.9 4,-1.6c6.7,-0.9 8.2,-1.1 9,-1.5c9,-3.2 14.5,-3.8 37.8,-3.9l24.3,-0.1l-0.4,20.7zm-203.7,-16.3c0,0.2 -2.1,1.6 -4.7,3l-4.8,2.6l3.5,-3c3,-2.6 6,-3.9 6,-2.6zm84.4,3.4c0.3,0.5 1.2,5.3 2.1,10.8c1.8,11.2 1.4,26.4 -1,39.9c-0.8,4.4 -1.8,11 -2.1,14.7l-0.5,6.6l-8.7,1.3c-11.3,1.6 -69.2,0.5 -74.8,-1.4l-3.6,-1.3l-0.4,-9c-0.5,-11.2 -2.2,-24.5 -4,-30.4c-1.2,-4.2 -1.7,-9.4 -1.5,-16.7c0.2,-5.3 4.2,-6.9 19.1,-7.7c6.9,-0.4 14.8,-1.1 17.5,-1.6c2.8,-0.5 13,-1.6 22.7,-2.5c9.8,-0.8 18.8,-2 20,-2.5c2.9,-1.1 14.5,-1.3 15.2,-0.2zm20,11.7c-0.1,6.6 -0.2,22.1 -0.3,34.5c-0.1,12.4 -0.6,23.1 -1,23.8c-0.4,0.7 -3.4,1.6 -6.6,1.9l-5.8,0.6l0.6,-10.4c0.3,-5.7 1,-11.7 1.7,-13.4c1.7,-4.5 1.4,-35.6 -0.5,-42.5c-0.8,-3 -1.5,-5.9 -1.5,-6.3c0,-0.4 3,-0.7 6.8,-0.5l6.7,0.3l-0.1,12zm100.6,63.9c0,1.7 -7,2.6 -20.7,2.6c-7.4,0 -13,0.7 -20.4,2.5c-7.1,1.7 -10.7,2.1 -12,1.5c-1,-0.6 -10.3,-1 -20.8,-1l-19.1,0l0,-5l30.8,-0.1c16.9,-0.1 33.4,-0.5 36.7,-0.9c3.3,-0.4 10.4,-0.8 15.8,-0.9c7.6,-0.1 9.7,0.2 9.7,1.3zm17.3,0.1c0.1,0.5 -1.9,1.1 -4.5,1.3c-2.7,0.2 -4.8,-0.1 -4.8,-0.7c0,-1.9 8.9,-2.5 9.3,-0.6zm-119.5,3.7c-0.5,1.6 -11.8,2.4 -11.8,0.9c0,-0.9 2.8,-1.4 9.8,-1.9c1.5,-0.1 2.2,0.3 2,1zm-19.8,0.8c0,0.5 -1.9,0.9 -4.2,0.9c-4,-0.1 -4.1,-0.2 -1.3,-0.9c4.4,-1.1 5.5,-1.1 5.5,0z"/>
    <path d="m205.8,82.25c-2.5,0.7 -5.8,0.9 -7.5,0.6c-6.6,-1.4 -18.1,-0.9 -24.1,1.1c-3.2,1.1 -7.5,2 -9.5,2c-6.2,0 -13.4,2.8 -18.3,7.1l-4.6,4.1l0,64.7l5,4.7c2.8,2.6 6.5,5.8 8.2,7.1c2.9,2.1 3.4,2.2 5.5,0.8c2.7,-1.8 7.2,-1.9 9.4,-0.2c2.6,2 4.1,5.6 6,14.7c3.5,16 4.8,18 13.3,19.5c3.2,0.6 3.9,0.3 6.7,-2.6c1.7,-1.9 4.5,-5.4 6.3,-7.9c1.7,-2.5 4.6,-5.2 6.4,-6.1c1.7,-0.9 3.9,-2.3 4.8,-3c1.3,-1.1 6.4,-1.4 22.9,-1.5c11.6,0 21.6,-0.4 22.2,-0.7c0.6,-0.4 1.6,-2.6 2.2,-5.1c1.2,-5.1 3.1,-6.2 7,-4.2c4.2,2.2 13.4,12.6 17.7,20.2c6.1,10.5 7,10.9 22.7,10.8c12.1,-0.1 14,-0.4 23,-3.4c9.4,-3.2 9.7,-3.3 9.8,-6.4c0.1,-1.7 0.1,-3.7 0,-4.4c-0.1,-0.6 0.9,-1.6 2.3,-2.1c1.5,-0.6 2.8,-2.3 3.6,-4.5c0.6,-2 1.5,-3.4 2,-3.1c0.5,0.3 -0.5,-2.1 -2.2,-5.2c-2.6,-4.8 -3.1,-6.8 -2.9,-11.8c0.1,-3.2 0.4,-6.1 0.7,-6.4c0.3,-0.3 1.8,0 3.4,0.6c2.7,1 2.8,1 1.7,-0.8c-0.9,-1.5 -0.8,-2.2 0.6,-3.6c1.6,-1.6 1.8,-1.6 3.4,0c1.4,1.4 1.5,2.1 0.6,3.6c-1.1,1.8 -1,1.8 1.7,0.8c2.9,-1.1 2.9,-1.1 1,-2.9c-1.1,-1.1 -2,-2.6 -2,-3.4c0,-1.1 -0.5,-1.4 -1.7,-0.9c-5.4,2.2 -9.6,2.5 -12,0.9c-2.2,-1.4 -2.5,-2.1 -2,-5.8c0.4,-2.5 1.3,-4.6 2.5,-5.4c1.2,-0.8 1.8,-2 1.5,-3.5c-0.4,-2.1 -0.9,-2.2 -7.1,-1.9c-3.7,0.2 -6.9,0.7 -7.2,1c-2,2.6 -6.3,3.5 -14.7,2.8c-4.8,-0.4 -10.8,-0.7 -13.3,-0.8c-4.2,-0.1 -4.2,-0.1 -0.8,-0.5c4.8,-0.5 6,-3.2 1.5,-3.5l-5.2,0c-1.1,0.1 -1.5,-0.1 -1,-0.5c0.6,-0.5 1.5,-1.7 2.1,-2.8c0.7,-1.3 3.1,-2.5 6.7,-3.4c3.1,-0.7 5.4,-1.7 5.1,-2.2c-0.3,-0.5 -1,-0.6 -1.6,-0.3c-0.6,0.4 -0.8,0.2 -0.5,-0.3c1.4,-2.2 -2.7,-5.4 -7.3,-5.8c-2.5,-0.1 -5.8,-0.8 -7.4,-1.4c-1.5,-0.6 -5.9,-1.1 -9.7,-1c-6.3,0.1 -7.1,-0.1 -11.6,-3.4c-5.1,-3.7 -15.1,-8.9 -21.7,-11.4c-2.3,-0.9 -9,-1.9 -15,-2.3l-10.9,-0.7l-3.7,-4c-3,-3.1 -4,-5.3 -5,-10.6c-1.5,-7.4 -1.5,-7.4 -9,-5.4z"/>
    <path d="m141.8,212.65c0,23.5 0.4,42.3 0.8,41.6c0.8,-1.2 8.1,-1.9 28.2,-2.8c6.9,-0.3 13.7,-1.1 15.2,-1.6c2.9,-1.2 15.9,0.1 27.8,2.6c3.6,0.8 9.5,1.6 13.2,1.9c6.4,0.5 15.7,4 17.3,6.6c0.3,0.5 1.5,1 2.5,1c2.7,0 7,-2.1 6.4,-3.1c-0.6,-1 -0.3,-1.1 3.6,-1.5c1.4,-0.1 5,-1 8,-1.9c3,-0.9 6.5,-1.9 7.8,-2.2c4.1,-1 10.9,1.8 16.9,6.9c6.2,5.3 8.5,6.5 23.4,12.3l9.6,3.7l5.2,-5.1c6.8,-6.6 12.5,-9.9 18,-10.3c3.5,-0.2 5.3,-1.1 8.5,-4.1c3.9,-3.6 13.6,-9 15.3,-8.5c1.1,0.3 9.7,-4.9 11.8,-7.2c1,-1.1 1.5,-2.6 1.1,-3.6c-0.6,-1.5 -1,-1.4 -3.4,0.9c-3.8,3.6 -7.3,4.7 -15.2,4.7c-5.8,0 -7.1,-0.3 -8,-1.9c-1.5,-2.8 0.1,-6 5,-10.5c2.3,-2.1 4,-3.9 3.8,-4.1c-0.2,-0.2 -4.6,-0.5 -9.8,-0.6c-8.9,-0.2 -9.6,-0.3 -12.2,-3c-2.5,-2.4 -2.8,-3.5 -2.8,-8.8c0,-3.4 -0.1,-6.1 -0.3,-6.1c-0.2,0 -3.7,1.2 -7.8,2.6c-6.1,2.2 -9.8,2.7 -21.2,3.1c-19.9,0.8 -22.7,-0.5 -30.6,-14.5c-1.8,-3.3 -5.6,-8.4 -8.4,-11.3l-5,-5.3l-2,4.3c-2.9,6.1 -6,7.4 -15.2,6.2c-9.7,-1.2 -32.5,-0.3 -34.5,1.4c-0.8,0.7 -2.5,1.6 -3.7,1.9c-1.1,0.4 -4.2,3.7 -6.7,7.4c-5.1,7.6 -8.7,10.2 -14.3,10.2c-4.8,0 -11.5,-3 -13.7,-6.1c-1.8,-2.6 -4.8,-12.2 -6.6,-21.1c-1.5,-7.8 -3,-9.2 -7.4,-7.1c-4.6,2.1 -7.4,1.2 -14.6,-4.7l-6,-5.1l0,42.8z"/>
    <path d="m228.8,261.85c3.6,1.7 7.2,3.1 8,3.2c0.8,0.1 -0.7,0.5 -3.5,0.9l-5,0.7l5.5,0.1c8.5,0.2 9.5,-1.2 3,-4.2c-3,-1.3 -7.5,-2.7 -10,-3.1l-4.5,-0.6l6.5,3zm44.2,-2.4c0.2,0.3 2.4,0.7 4.8,0.9c2.9,0.3 3.9,0.1 2.9,-0.5c-1.4,-0.9 -8.6,-1.3 -7.7,-0.4zm195.5,117.2c4.8,0.5 6.8,2.8 6,6.9c-0.2,1.3 0,2.1 0.4,1.8c1.6,-0.9 0.9,-6.1 -0.9,-7.7c-1.2,-1.1 -3.3,-1.6 -5.8,-1.5l-3.9,0.1l4.2,0.4zm-58.6,21.7c-1.7,2 -3.2,7.6 -2,7.6c0.5,0 0.9,-0.7 0.9,-1.5c0,-2.7 0.1,-3 1.6,-5.3c1.6,-2.4 1.3,-3 -0.5,-0.8z"/>
   </g>
   <path d="m516.1,243.65c1.5,0.2 3.9,0.2 5.5,0c1.5,-0.2 0.2,-0.4 -2.8,-0.4s-4.3,0.2 -2.7,0.4zm-151.8,6.3c-3.8,1.7 -14.5,10 -13,10c1.3,0 6.5,-3.4 6.5,-4.3c0,-0.4 0.5,-0.5 1.2,-0.1c0.6,0.4 0.8,0.3 0.5,-0.3c-0.8,-1.3 0.7,-2.6 5.3,-4.3c3.6,-1.4 6.2,-3.1 4.5,-2.9c-0.6,0 -2.8,0.9 -5,1.9zm-135.5,13c3,1.6 6.2,2.9 7,3c0.8,0 -1.4,-1.4 -4.8,-3c-8.1,-3.8 -9.4,-3.8 -2.2,0zm107.5,8.1c-5.2,4 -5.6,4.5 -2,2.6c1.7,-0.8 3.9,-2.4 4.9,-3.6c2.5,-2.8 1.9,-2.6 -2.9,1z" stroke-width="0.4" stroke="#AA007C" fill="#AA007C"/>
   <path d="m383.1,313.95c0,3 0.2,4.3 0.4,2.7c0.2,-1.5 0.2,-3.9 0,-5.5c-0.2,-1.5 -0.4,-0.2 -0.4,2.8zm-224.5,198.7c1.7,0.2 4.7,0.2 6.5,0c1.7,-0.2 0.3,-0.4 -3.3,-0.4c-3.6,0 -5,0.2 -3.2,0.4zm-14.1,4.3c-2,2.1 -2.7,3.9 -2.7,6.7l0,3.8l9.5,-0.1l9.6,-0.2l6.5,-6.2c4.2,-4.1 5.7,-6 4.2,-5.5c-5.2,1.7 -16.3,1.7 -20.2,0.1c-2.1,-0.9 -3.9,-1.6 -4,-1.6c0,0.1 -1.3,1.4 -2.9,3zm122.3,0.5c-1.9,0.7 -5.1,1.4 -7,1.4c-2.1,0 -7.2,2 -12.8,4.8c-8.5,4.4 -9,4.9 -6.5,5.4c1.5,0.4 5.3,0.7 8.4,0.8c3,0 6,0.6 6.6,1.2c0.9,0.9 3.3,0 9.7,-3.7c11.5,-6.5 13,-7.8 12.3,-9.8c-0.8,-2 -5.7,-2 -10.7,-0.1zm-23.5,2.9c-1.6,0.8 -3.9,2.1 -5,3c-1.1,0.9 0.4,0.5 3.3,-0.9c2.8,-1.4 5.2,-2.8 5.2,-3c0,-0.6 0,-0.6 -3.5,0.9zm40.2,4.1c-0.4,1.1 -2.2,2.9 -3.9,4c-1.8,1 -5.4,3.2 -8,4.7c-2.7,1.6 -4.8,3 -4.8,3.2c0,0.2 2.8,-0.7 6.3,-2.1c7.1,-2.9 12.1,-7.1 11.5,-9.9c-0.4,-1.8 -0.4,-1.8 -1.1,0.1zm-12.2,3.7c-6.5,4.1 -23.9,12.8 -25.6,12.8c-0.8,0 -4.1,1.6 -7.4,3.5l-6,3.5l6.5,-0.1c5.1,0 6,-0.2 4.1,-1c-1.9,-0.8 -2.1,-1.2 -1.1,-2.4c0.7,-0.8 1.9,-1.5 2.7,-1.5c0.8,0 4.7,-1.5 8.6,-3.3c8.4,-3.9 25.9,-14.9 23.5,-14.7c-0.2,0 -2.5,1.5 -5.3,3.2zm-129.5,11c0,8 0.1,8.2 1.6,5.8c0.9,-1.4 4.2,-5.1 7.3,-8.3l5.5,-5.7l-14.4,0l0,8.2zm22.5,-1l-6,6.2l6.5,-5.9c3.6,-3.2 6.7,-6 6.9,-6.2c0.2,-0.2 0,-0.3 -0.5,-0.3s-3.6,2.8 -6.9,6.2zm62,-4.3c-2.2,1 -6.6,4.6 -9.7,8l-5.7,6.1l9.8,0c8.4,0 9.9,-0.2 9.7,-1.6c-0.1,-1.5 11.9,-8.5 19.3,-11.1c1.9,-0.7 3.3,-1.4 3,-1.6c-0.2,-0.3 -5.3,-0.7 -11.4,-1.1c-9.5,-0.5 -11.5,-0.3 -15,1.3zm-72.2,5.1c-2.9,2.8 -5.7,5.9 -6.3,7c-0.9,1.8 -0.8,2 1.5,2c1.4,0 2.5,-0.5 2.5,-1.1c0,-0.6 2.3,-3.8 5.1,-7c6.2,-7.2 4.4,-7.8 -2.8,-0.9z" stroke-width="0.4" stroke="#7C007C" fill="#7C007C"/>
   <path d="m615.6,423.65c1.8,0.2 4.5,0.2 6,0s0,-0.4 -3.3,-0.4s-4.5,0.2 -2.7,0.4zm-277,7c2.3,0.2 5.9,0.2 8,0c2,-0.2 0.1,-0.4 -4.3,-0.4c-4.4,0 -6.1,0.2 -3.7,0.4zm197,1c1.8,0.2 4.5,0.2 6,0s0,-0.4 -3.3,-0.4s-4.5,0.2 -2.7,0.4zm68.5,104.3c0,3.6 0.2,5 0.4,3.2c0.2,-1.7 0.2,-4.7 0,-6.5c-0.2,-1.7 -0.4,-0.3 -0.4,3.3z" stroke-width="0.4" stroke="#7C7C7C" fill="#7C7C7C"/>
   <path d="m426.8,110.15c0,1 0.4,1.8 0.9,1.8s1.6,1.5 2.5,3.2c1.1,2.4 1.6,2.8 1.5,1.3c0,-1.1 -1.1,-3.4 -2.4,-5c-1.9,-2.3 -2.5,-2.6 -2.5,-1.3z" stroke-width="0.4" stroke="#0000CB" fill="#0000CB"/>
   <g stroke-width="0.4" stroke="#0000E7" fill="#0000E7">
    <path d="m410.8,99.95c0,0.5 0.8,1.1 1.8,1.4c0.9,0.2 -0.3,0.2 -2.8,0c-2.5,-0.3 -8.8,0.1 -14,0.9c-5.2,0.8 -13.9,1.4 -19.4,1.2c-12.4,-0.2 -14.4,0.1 -14.8,2.9c-0.4,3.1 -8.5,5.4 -22.6,6.6c-9,0.7 -14,1.7 -21.4,4.3l-9.7,3.4l2.2,2.2c1.3,1.1 2.7,2.1 3.1,2.1c2.1,0 7.6,3.4 7.6,4.7c0,1 -0.6,1.3 -1.6,0.9c-0.9,-0.4 -2.4,0 -3.3,0.8c-0.9,0.8 -3.6,2.1 -6.1,3c-4.5,1.6 -4.5,1.6 6.5,1c6.1,-0.4 12,-1 13.3,-1.5c1.3,-0.5 5,-0.9 8.2,-0.9c9.8,0 21.1,-2 28.9,-5.1c4,-1.6 8.4,-3 9.7,-3.1c1.3,-0.1 2.4,-0.6 2.4,-1c0,-1.2 3.4,-1 4.7,0.3c0.7,0.7 0.5,2.2 -0.8,4.9c-1.8,3.8 -1.8,4 0.2,10.7c1.1,3.7 2.3,7.5 2.6,8.3c0.4,0.8 0.7,1.8 0.7,2.1c0.3,1.8 8.7,9.9 10.9,10.4c3.2,0.8 5.7,4 5.7,7.1c0,2 0.8,2.3 6.8,3.2c3.7,0.5 8.4,0.9 10.4,1l3.7,0.1l1.6,-7.7c0.8,-4.2 2,-9.5 2.5,-11.7c2.2,-8.5 4.2,-21 3.8,-24.2c-0.2,-1.8 0,-3.3 0.4,-3.3s0.8,-1 0.8,-2.3c0,-1.8 -0.2,-1.9 -1.1,-0.7c-0.8,1.2 -0.9,1 -0.4,-0.7c0.6,-2.4 -2.1,-9.3 -3.6,-9.3c-0.5,0 -0.9,-0.9 -0.9,-1.9c0,-1.2 -0.9,-2.1 -2.5,-2.5c-1.6,-0.4 -3.2,-2 -4.2,-4.1c-0.9,-1.9 -1.9,-3.5 -2.2,-3.6c-5.3,-0.6 -7.1,-0.5 -7.1,0.1z"/>
    <path d="m318.8,140.95l-4.5,0.7l4.7,0.1c2.6,0.1 5,-0.3 5.3,-0.8c0.3,-0.6 0.3,-0.9 -0.2,-0.8c-0.4,0 -2.8,0.4 -5.3,0.8zm23.2,4.2c-2.1,2.7 -2.4,7.3 -0.5,9c1.5,1.4 2.6,1.5 6.6,0.6c4.1,-0.8 5.1,-1.5 6.5,-4.5c1.6,-3.3 1.6,-3.6 -0.3,-4.9c-2.3,-1.7 -10.9,-1.8 -12.3,-0.2z"/>
   </g>
   <path d="m335.6,133.65c1.7,0.2 4.7,0.2 6.5,0c1.7,-0.2 0.3,-0.4 -3.3,-0.4c-3.6,0 -5,0.2 -3.2,0.4zm-178.5,383c2,0.2 5.4,0.2 7.5,0c2,-0.2 0.3,-0.4 -3.8,-0.4s-5.8,0.2 -3.7,0.4z" stroke-width="0.4" stroke="#00007C" fill="#00007C"/>
   <path d="m416.1,367.45c0,3.8 0.2,5.3 0.4,3.2c0.2,-2 0.2,-5.2 0,-7c-0.2,-1.7 -0.4,-0.1 -0.4,3.8z" stroke-width="0.4" stroke="#AA7C7C" fill="#AA7C7C"/>
   <path d="m179.1,256.65c1.5,0.2 3.9,0.2 5.5,0c1.5,-0.2 0.2,-0.4 -2.8,-0.4s-4.3,0.2 -2.7,0.4zm20,0c1.5,0.2 3.9,0.2 5.5,0c1.5,-0.2 0.2,-0.4 -2.8,-0.4s-4.3,0.2 -2.7,0.4zm140,30c1.5,0.2 3.9,0.2 5.5,0c1.5,-0.2 0.2,-0.4 -2.8,-0.4s-4.3,0.2 -2.7,0.4zm-179,225c2,0.2 5.4,0.2 7.5,0c2,-0.2 0.3,-0.4 -3.8,-0.4s-5.8,0.2 -3.7,0.4z" stroke-width="0.4" stroke="#AA7CAA" fill="#AA7CAA"/>
   <path d="m439.1,345.45c0,4.4 0.2,6.1 0.4,3.7c0.2,-2.3 0.2,-5.9 0,-8c-0.2,-2 -0.4,-0.1 -0.4,4.3zm-9.3,15.3l0.5,6.7l0.3,-5.9c0.2,-3.2 -0.1,-6.3 -0.5,-6.7c-0.4,-0.4 -0.6,2.2 -0.3,5.9z" stroke-width="0.4" stroke="#E7E7E7" fill="#E7E7E7"/>
   <path d="m383.1,295.45c0,4.4 0.2,6.1 0.4,3.7c0.2,-2.3 0.2,-5.9 0,-8c-0.2,-2 -0.4,-0.1 -0.4,4.3z" stroke-width="0.4" stroke="#AAA" fill="#AAA"/>
   <path d="m582.6,329.65c3.4,0.2 9,0.2 12.5,0c3.4,-0.2 0.6,-0.3 -6.3,-0.3c-6.9,0 -9.7,0.1 -6.2,0.3z" stroke-width="0.4" stroke="#CBAACB" fill="#CBAACB"/>
   <path d="m374.5,170.65c1.8,0.2 5,0.2 7,0c2.1,-0.2 0.7,-0.4 -3.2,-0.4c-3.8,0 -5.5,0.2 -3.8,0.4zm121.3,49.7c0,3 -0.3,3.7 -1.6,3.2c-0.8,-0.3 -1.2,-0.2 -0.9,0.3c0.3,0.6 1.4,0.9 2.4,0.8c1.6,-0.1 1.8,-0.7 1.4,-3.7c-0.8,-4.8 -1.3,-5.1 -1.3,-0.6zm-71.7,139.6c0,3 0.2,4.3 0.4,2.7c0.2,-1.5 0.2,-3.9 0,-5.5c-0.2,-1.5 -0.4,-0.2 -0.4,2.8zm27.4,9.7c-1.1,1.9 -1.8,7.3 -0.9,7.3c0.6,0 1.2,-1.8 1.4,-4c0.4,-4.1 0.3,-4.6 -0.5,-3.3z" stroke-width="0.4" stroke="#7C7C00" fill="#7C7C00"/>
   <path d="m390.7,174.15c0.7,1 1.1,2.6 0.8,3.7c-0.2,1 -0.1,2.5 0.4,3.2c0.6,0.9 0.9,0.2 0.9,-2.2c0,-2.3 -0.7,-4.2 -1.7,-5c-1.6,-1.3 -1.7,-1.2 -0.4,0.3z" stroke-width="0.4" stroke="#CBAA00" fill="#CBAA00"/>
   <path d="m378.1,171.65c1.5,0.2 3.9,0.2 5.5,0c1.5,-0.2 0.2,-0.4 -2.8,-0.4s-4.3,0.2 -2.7,0.4zm-14.3,16.8c0,0.8 -1.1,2.2 -2.6,3.1c-1.8,1.3 -2.2,2 -1.4,2.8c0.8,0.8 1.9,0.2 4.1,-2.2c3.2,-3.6 3.7,-5.2 1.4,-5.2c-0.8,0 -1.5,0.7 -1.5,1.5zm26.8,73.2c1.7,0.2 4.7,0.2 6.5,0c1.7,-0.2 0.3,-0.4 -3.3,-0.4c-3.6,0 -5,0.2 -3.2,0.4z" stroke-width="0.4" stroke="#CBCB00" fill="#CBCB00"/>
   <path d="m405.1,267.45c0,3.3 0.2,4.5 0.4,2.7c0.2,-1.8 0.2,-4.5 0,-6s-0.4,0 -0.4,3.3z" stroke-width="0.4" stroke="#AA7C00" fill="#AA7C00"/>
   <path d="m365.8,135.05c-3.6,1 -8.9,2.1 -11.7,2.5c-4.2,0.5 -5.3,1 -5.3,2.4c0,1.5 0.7,1.7 3.5,1.5c2.7,-0.3 3.8,0.2 5,1.8c1,1.4 1.1,2.4 0.4,3.3c-0.7,0.8 -0.7,1.4 0.1,1.9c0.8,0.5 0.8,1.1 0,2c-0.6,0.8 -1,2.6 -0.8,4.2c0.4,3.5 4.5,5.2 8.8,3.6c2.3,-0.8 3.3,-0.8 5,0.4c2.4,1.7 8.1,1.1 9.9,-1.1c1.3,-1.5 -1.1,-8.3 -3.6,-10.1c-0.8,-0.6 -1.7,-3.2 -2,-5.8c-0.3,-2.6 -0.9,-4.7 -1.4,-4.7c-0.4,0 -0.9,-0.8 -1.1,-1.9c-0.3,-1.8 -0.5,-1.8 -6.8,0zm2.5,36.9c-7.7,0.6 -9.3,1.2 -10.4,4.3c-0.8,2.2 0.5,7.8 1.7,7.5c0.4,-0.1 1.5,0.2 2.4,0.6c1.7,0.8 1.7,1 0,3.8c-0.9,1.7 -3.3,3.7 -5.2,4.5c-7.3,3.2 -11,9.9 -11,20.4l0,5.8l5.7,1.2c4.3,1 5.8,1 6.1,0.1c0.2,-0.6 1.9,-1.4 3.7,-1.8c2.8,-0.5 3.6,-1.3 4.5,-4c0.9,-2.5 1.7,-3.4 3.4,-3.4c2.8,0 6.2,3.8 4.7,5.3c-0.6,0.6 -1.1,2 -1.1,3.1c0,4.6 -2.3,9.8 -5.7,13.1c-3.4,3.3 -3.5,3.5 -1.3,3.5c6.7,0 16.5,-8.6 16.5,-14.5c0,-4.1 2.9,-4.5 6.6,-0.9c3.5,3.4 3.7,6.1 0.5,7.3c-1.3,0.5 -2.6,1.9 -2.9,3c-0.6,2.5 0.3,3.3 2.3,2c0.8,-0.5 2.9,-0.9 4.6,-0.9c1.7,0 5.7,-1.4 8.8,-3.1c4.6,-2.4 7.4,-3.1 14.2,-3.6c4.6,-0.3 8.4,-1 8.4,-1.5s0.4,-0.7 0.8,-0.4c0.8,0.5 -1.3,-10.6 -4.2,-21.9c-0.9,-3.3 -1.6,-8.7 -1.6,-12.1c0,-4.5 -0.4,-6.5 -1.7,-7.6c-2.5,-2.2 -8.1,-4.6 -13.1,-5.7c-4.9,-1 -5.7,-0.2 -5,4.9c0.4,2.4 -0.1,3.1 -2.8,4.6c-2.8,1.5 -3.5,1.6 -4.9,0.4c-1,-0.9 -1.4,-2.2 -1,-3.7c0.4,-1.8 0.1,-2.3 -1.4,-2.3c-2.3,0 -6.4,-4.8 -5.7,-6.6c0.6,-1.5 -6.1,-2.1 -15.9,-1.4zm-0.5,13.5c0,1.4 -3,6.2 -4.9,7.9c-1.5,1.3 -2.5,1.6 -3.2,0.9c-0.7,-0.7 -0.2,-1.5 1.5,-2.7c1.5,-0.9 2.6,-2.5 2.6,-3.5c0,-1.7 1.2,-2.8 3.3,-3c0.4,-0.1 0.7,0.1 0.7,0.4zm118.7,36.2c-0.4,0.3 -0.7,1.5 -0.7,2.5c0,1.2 -1.3,2.4 -3.7,3.5c-2.1,0.8 -5,2.5 -6.4,3.8c-2.6,2.1 -15.6,8.9 -19.1,9.9c-1.3,0.4 -1.8,1.6 -1.8,4.6c0,5 1.6,5.8 7.9,4c2.5,-0.7 6.2,-1.5 8.1,-1.8c1.9,-0.2 4.7,-1.4 6.2,-2.6c1.5,-1.1 3.9,-2.9 5.4,-4c1.4,-1 3.7,-4.2 5,-7.1c1.2,-2.9 3.2,-5.9 4.3,-6.7c1.4,-1 1.8,-2.1 1.4,-3.6c-0.5,-2.1 -0.7,-2.1 -1.8,-0.6c-1.5,2.1 -4.7,1.2 -3.9,-1.1c0.6,-1.6 0.2,-2 -0.9,-0.8zm-97.7,69.5c0.4,22.7 0.8,29.9 1.9,31.8c0.9,1.5 1.6,2 1.9,1.2c0.6,-1.8 4.2,-1.5 6.5,0.5c1.9,1.7 2,1.7 0.8,-0.4c-1.4,-2.7 -1.5,-23.5 -0.1,-28.3c0.6,-2.2 0.8,-9.3 0.4,-18.8l-0.7,-15.2l-11.2,0l0.5,29.2zm29.1,60.5c-1.1,2.1 -0.2,40.3 1,40.3c0.4,0 2,-1.1 3.5,-2.5s3.1,-2.5 3.7,-2.5c1.2,0 0.1,-15.4 -1.3,-18.1c-0.6,-1 -1,-5.6 -1,-10.3c0,-8.5 0,-8.6 -2.5,-8.6c-1.3,0 -2.9,0.8 -3.4,1.7zm38.4,14.3l0,12.7l3.3,-1.5l3.2,-1.6l0,-9.1c0,-9.5 -0.8,-11.9 -4.5,-12.7c-1.9,-0.5 -2,0 -2,12.2z" stroke-width="0.4" stroke="#E7CB00" fill="#E7CB00"/>
   <path d="m436.3,341.05c-0.5,6.9 -1.2,11 -2.2,12.1c-1.8,2 -1,3.8 1.7,3.8c2.6,0 3,-1.9 3,-13.3c0,-14.1 -1.6,-15.6 -2.5,-2.6zm-5.8,37.4c0.3,3.8 0.6,7.1 0.7,7.1c0,0.1 1.2,0.5 2.5,0.9c1.6,0.5 2.1,0.4 1.7,-0.4c-0.4,-0.6 -1.4,-1.1 -2.2,-1.1c-1,0 -1.4,-1.3 -1.5,-4.3c-0.1,-2.3 -0.5,-5.3 -1,-6.7c-0.5,-1.6 -0.6,0.1 -0.2,4.5z" stroke-width="0.4" stroke="#FFF" fill="#FFF"/>
   <path d="m358.1,159.75c1.1,1.6 -6.7,3.6 -9.1,2.3c-4,-2.1 -5.2,-1.4 -5.2,3.1c0,6.8 4.8,20.1 7.6,21.2c1.6,0.6 6.4,-1.3 6.4,-2.5c0,-0.4 -0.5,-1.1 -1,-1.4c-0.6,-0.4 -0.9,-2.6 -0.8,-5c0.2,-2.4 0.5,-4.2 0.7,-4c0.2,0.3 1.3,-0.2 2.5,-1c1.1,-0.8 4.2,-1.5 6.7,-1.5c2.6,0 4.9,-0.5 5.1,-1c0.2,-0.6 3,-1.4 6.3,-1.7c4.2,-0.4 6.4,-1.2 7.3,-2.5c1.8,-2.4 2.4,-2.3 7.9,1.5c4,2.8 5.2,3.2 7.1,2.3c2.7,-1.3 2.8,-2.7 0.4,-5.6c-1.4,-1.7 -3,-2.3 -6.8,-2.5c-2.7,-0.1 -5.1,-0.3 -5.4,-0.4c-0.3,-0.1 -4.3,-0.2 -9,-0.1c-4.7,0 -9.1,-0.4 -9.9,-0.9c-0.8,-0.5 -2.5,-0.5 -4.2,0.1c-1.9,0.6 -3.4,0.6 -4.9,-0.2c-1.3,-0.7 -2,-0.8 -1.7,-0.2zm268.1,100.7c0,6 0.1,8.4 0.3,5.2c0.2,-3.2 0.2,-8.1 0,-11c-0.2,-2.9 -0.3,-0.3 -0.3,5.8zm7,1c0,5.5 0.1,7.6 0.3,4.7c0.2,-2.9 0.2,-7.4 0,-10c-0.2,-2.6 -0.3,-0.2 -0.3,5.3zm-17.1,-3c0,3.3 0.2,4.5 0.4,2.7c0.2,-1.8 0.2,-4.5 0,-6s-0.4,0 -0.4,3.3zm-8,5.5c0,3 0.2,4.3 0.4,2.7c0.2,-1.5 0.2,-3.9 0,-5.5c-0.2,-1.5 -0.4,-0.2 -0.4,2.8zm-120,5.5c0,4.4 0.2,6.1 0.4,3.7c0.2,-2.3 0.2,-5.9 0,-8c-0.2,-2 -0.4,-0.1 -0.4,4.3zm7,0.5c0,4.7 0.2,6.6 0.4,4.2c0.2,-2.3 0.2,-6.1 0,-8.5c-0.2,-2.3 -0.4,-0.4 -0.4,4.3zm-42,19.4c-1.2,1.4 -11,3.2 -12,2.3c-0.3,-0.3 -2.3,0.6 -4.5,2c-2.3,1.3 -6.6,2.8 -9.7,3.3c-5.5,0.8 -14.9,5.9 -17.8,9.6c-1.3,1.7 0,7.1 2.2,8.9c2,1.7 5.5,13.7 5.5,19.1l0,5.2l3.8,-0.5c3.3,-0.4 4.4,-0.1 7.3,2.5l3.4,3l-0.3,-10.7c-0.5,-16.1 1.8,-20.1 11.7,-20.1c2.1,0 4.1,0.3 4.4,0.6c1.3,1.3 -1.4,4.3 -4.7,5.4l-3.4,1.1l1.5,3.2c2.3,4.6 7.9,13.1 9.8,14.7c0.9,0.7 2.3,2.6 3.1,4.2c1.8,3.5 2.4,3.5 6.7,-0.3l3.4,-3l-1.9,-5.7c-2,-5.8 -2,-6.6 0.1,-22.2c0.4,-3 1.3,-6.8 1.9,-8.3c1.6,-3.9 1.5,-9.2 -0.3,-12.7c-1.3,-2.5 -2.1,-3 -5.3,-3c-2,0.1 -4.2,0.7 -4.9,1.4zm160,14.6c0,4.1 0.2,5.8 0.4,3.7c0.2,-2 0.2,-5.4 0,-7.5c-0.2,-2 -0.4,-0.3 -0.4,3.8zm10.1,1.5c0,4.9 0.1,7.1 0.3,4.8c0.2,-2.3 0.2,-6.4 0,-9c-0.2,-2.6 -0.3,-0.8 -0.3,4.2zm-18.1,9.5c0,4.7 0.2,6.6 0.4,4.2c0.2,-2.3 0.2,-6.1 0,-8.5c-0.2,-2.3 -0.4,-0.4 -0.4,4.3zm27.8,14.7c0,1.3 0.1,2.3 0.4,2.3c1,0 6.5,-3 6.5,-3.6c0,-0.2 -1.3,0.2 -2.9,1.1c-2.7,1.4 -3,1.3 -3.4,-0.3c-0.4,-1.3 -0.5,-1.1 -0.6,0.5zm-20.9,9c-0.2,6 0.5,6.4 5.6,3.3c1.8,-1.1 3.1,-2.7 3.1,-3.7c-0.1,-1.7 -0.2,-1.7 -0.6,0c-0.4,1.4 -5,4.7 -6.7,4.7c-0.3,0 -0.7,-2.1 -0.9,-4.8l-0.3,-4.7l-0.2,5.2zm-7,2c-0.1,3 -0.7,5.3 -1.4,5.6c-1,0.4 -1,0.6 0,0.6c1.8,0.1 2.4,-2 1.9,-7l-0.4,-4.4l-0.1,5.2zm-187.6,4.2c-0.3,0.5 1.6,1.1 4.3,1.3c3.9,0.2 4.7,0 3.9,-1c-1.2,-1.4 -7.4,-1.6 -8.2,-0.3zm69.8,18.1c0,6.3 0.1,8.9 0.3,5.7c0.2,-3.1 0.2,-8.3 0,-11.5c-0.2,-3.1 -0.3,-0.5 -0.3,5.8zm125.9,-4.5c0,3.3 0.2,4.5 0.4,2.7c0.2,-1.8 0.2,-4.5 0,-6s-0.4,0 -0.4,3.3zm-119,5.5c0,4.1 0.2,5.8 0.4,3.7c0.2,-2 0.2,-5.4 0,-7.5c-0.2,-2 -0.4,-0.3 -0.4,3.8zm113.7,12.7c-0.3,4.5 -0.1,7.8 0.3,7.4c0.4,-0.4 0.7,-4.1 0.5,-8.2l-0.3,-7.4l-0.5,8.2zm7.4,0.8l0.1,7l11,0l0.1,-4l0.1,-4l-0.4,3.7l-0.4,3.8l-9.8,0l-0.4,-6.8l-0.3,-6.7l0,7zm-157.6,6c-2,1.4 -4.2,2.5 -4.7,2.5c-0.6,0 -1.1,1 -1.1,2.2c0,1.2 -0.7,3 -1.7,4c-2.6,2.9 -1,3 3.8,0.4c2.4,-1.3 6.1,-2.7 8.2,-3c2.8,-0.5 4.3,-1.5 5.5,-3.7c0.9,-1.6 2,-2.9 2.5,-2.9c0.4,0 0.7,-0.5 0.7,-1c0,-0.6 -2.1,-1 -4.8,-1c-3.4,0 -5.8,0.7 -8.4,2.5zm-32.6,9c-1.4,1.6 -3.2,2.5 -5.1,2.5c-2.5,0 -3,0.5 -3.5,3.4c-0.4,1.9 -1.3,4 -2.2,4.7c-1.2,1 -4.4,7.1 -4.4,8.5c0,1.5 5.4,-0.2 10.9,-3.5c3.6,-2.1 8.3,-4.4 10.3,-5c2.1,-0.7 4.7,-2.7 6.2,-4.6c2.9,-3.8 2.2,-5.1 -3.6,-6.5c-1.8,-0.4 -4,-1.1 -4.8,-1.4c-1,-0.4 -2.4,0.3 -3.8,1.9zm195.5,3.2c5,0.4 5.2,0.5 5.6,3.6c0.4,3.1 0.5,3.1 0.3,-0.3l-0.1,-3.5l-5.5,-0.1l-5.5,-0.1l5.2,0.4zm-210,3.3c-0.9,1.3 -1.4,2.6 -1.2,2.9c0.9,0.8 3.8,-2.6 3.3,-4c-0.3,-0.8 -1,-0.5 -2.1,1.1zm113.3,5.5c-6.4,1.1 -6.5,1.2 -3,2l3.5,0.9l-4,0.7c-2.9,0.4 -1.9,0.6 4,0.6c4.4,0 6.7,-0.2 5.2,-0.4l-2.8,-0.4l2.3,-1.8c1.3,-1 3,-2.1 3.8,-2.4c2.4,-0.9 -1.7,-0.5 -9,0.8zm115.3,13c0,3.3 0.2,4.5 0.4,2.7c0.2,-1.8 0.2,-4.5 0,-6s-0.4,0 -0.4,3.3zm-203.8,-1.9l-3,1.5l3.4,-0.6c1.8,-0.3 3.8,-0.5 4.3,-0.5s0.6,-0.5 0.3,-1c-0.8,-1.3 -1.3,-1.2 -5,0.6zm76.6,2.6c0.2,3 0.2,3 0.6,0.6c0.3,-2.2 1,-2.8 3.6,-3.1c3.1,-0.4 3.1,-0.4 -0.5,-0.5c-3.7,-0.2 -3.8,-0.1 -3.7,3zm-135.3,9.5c1.8,0.2 4.5,0.2 6,0s0,-0.4 -3.3,-0.4s-4.5,0.2 -2.7,0.4z" stroke-width="0.4" stroke="#A00" fill="#A00"/>
   <g stroke-width="0.4" stroke="#CB7CAA" fill="#CB7CAA">
    <path d="m548.3,236.45c-3.3,0.7 -8.5,2.5 -11.5,3.9c-10.5,4.8 -26.4,4.4 -37.4,-1.1l-4.8,-2.4l0.6,7.8c0.3,4.3 0.9,13.5 1.2,20.5l0.6,12.6l5.2,0.6c2.8,0.3 10.4,0.9 16.9,1.2c13.3,0.7 20.1,-0.6 29.4,-5.7c10.6,-5.7 20,-7.2 29.8,-4.5c2.8,0.7 9.6,3.7 15.2,6.6c5.7,2.8 11,5 11.8,4.6c1,-0.4 1.5,-2 1.5,-5.4c0,-2.7 0.3,-9.7 0.7,-15.7l0.6,-10.7l-7.9,0.6c-9.8,0.9 -14.7,-0.5 -24.1,-6.6c-11,-7.2 -17.5,-8.7 -27.8,-6.3zm-159.9,4c-1.8,2.8 -1.3,6.5 0.9,6.5c0.7,0 1.6,-0.7 1.9,-1.6c0.4,-1.2 0.2,-1.5 -0.9,-1c-1,0.4 -1.5,-0.1 -1.5,-1.5c0,-1.5 0.5,-1.9 1.5,-1.5c1.7,0.6 1.9,-0.2 0.6,-2.2c-0.6,-1 -1.2,-0.7 -2.5,1.3zm94.9,6.7c-1.1,0.6 -3.3,2.2 -4.8,3.5c-1.8,1.4 -4.2,2.3 -6.3,2.3c-1.9,0 -5.1,0.7 -7.1,1.5c-1.9,0.8 -5,1.5 -6.7,1.5c-5.7,0 -6.2,1.2 -3,6.4c2.7,4.2 3.2,4.5 7.3,4.6c3.3,0 5.1,0.6 7,2.4c2.7,2.5 12.2,6.6 15.4,6.6c1.5,0 1.7,-1.2 1.6,-12.3c-0.1,-6.7 -0.4,-13.4 -0.8,-14.9c-0.5,-2.3 -0.9,-2.5 -2.6,-1.6zm134.4,4.5c-0.1,2.1 -0.4,8.3 -0.8,13.9l-0.6,10l2.5,-1.3c1.4,-0.7 3.3,-1.3 4.3,-1.3c1.5,0 1.7,-1.2 1.7,-11.5s-0.2,-11.5 -1.9,-12.5c-3.8,-2 -5.1,-1.2 -5.2,2.7zm-246.5,2.6c-12.9,8.7 -16.9,10.7 -23,11.7c-4.1,0.7 -6.6,1.8 -8.8,3.8c-1.7,1.6 -4.6,3.8 -6.3,4.8c-1.8,1 -3.3,2.1 -3.3,2.4c0,0.4 2.9,1.2 6.3,1.9c9.3,1.8 19.8,0.6 26.3,-3c5.4,-3.1 11.9,-3.8 16.8,-1.9c2.9,1.1 2.9,1 2.7,-5.9c-0.2,-5.1 -0.8,-6.4 -2.3,-5.5c-0.8,0.5 -0.9,-1.4 -0.5,-6.4c0.3,-4 0.5,-7.2 0.3,-7.2c-0.1,0 -3.8,2.4 -8.2,5.3zm263.6,8.7l0,10l2.6,0c2.3,0 2.5,-0.3 2,-2.8c-0.4,-1.6 0,-3.9 0.9,-5.6c0.8,-1.5 1.5,-4.5 1.5,-6.6c0,-3.9 -1.1,-5 -5.1,-5c-1.7,0 -1.9,0.8 -1.9,10zm-471,-5.9c-3.6,0.4 -10,0.9 -14.2,1.1l-7.8,0.3l0,18.2c0,16.8 0.1,18.3 1.8,18.3c4.3,0.1 9.8,3.8 12.2,8.3c3.1,5.7 5.7,7.1 14.6,7.3c7.2,0.2 15.9,2.4 20.2,5.1c4.4,2.8 15.1,3.1 17,0.6c2.3,-3.1 3.5,-9.4 2.2,-11.8c-0.6,-1.1 -1,-2.5 -0.9,-3.1c0.1,-0.5 -0.3,-2.3 -1,-3.9c-0.7,-1.7 -1.5,-4.3 -1.8,-5.9c-0.4,-1.9 -3.1,-5.3 -7.5,-9.5c-8.1,-7.7 -9.4,-9.6 -7.8,-11.6c1.4,-1.7 -0.1,-4.9 -2.6,-5.9c-2.9,-1.1 -0.2,-2.5 6.1,-3.2c5.1,-0.5 7,-0.2 12,1.9c6,2.5 12,3.2 22.5,2.8l5.5,-0.3l-6,-2.8c-9.7,-4.6 -18,-5.9 -39,-6.3c-10.4,-0.1 -21.9,0 -25.5,0.4z"/>
    <path d="m261.3,262.35c-2.2,0.7 -5.9,2.2 -8.2,3.4c-2.3,1.2 -5.6,2.2 -7.3,2.2l-3.1,0l3.5,4.2c1.9,2.4 7.5,7.6 12.5,11.7s9.3,8.3 9.7,9.3c0.3,1 1.1,1.8 1.7,1.8c0.7,0 2.9,1.6 5,3.6c3.4,3.3 3.7,3.9 3.7,9.3c0,7 1.2,8.7 6.8,9.4c2.6,0.3 6.2,1.9 9.5,4.1c2.8,2 8.1,5.7 11.7,8.2l6.5,4.5l8,-0.4c5.6,-0.3 10.6,-1.3 16.5,-3.4c11.3,-4.1 16.2,-6.2 17.5,-7.7c0.5,-0.7 2.8,-1.8 5.1,-2.5c3.6,-1.2 4.4,-1.1 8,0.8c3.9,2.1 7.9,2.6 12.2,1.5l2.2,-0.6l-0.4,-20.1c-0.3,-18.6 -0.5,-20.1 -2.2,-20.8c-3.6,-1.4 -10.6,-0.9 -14.3,1c-2,1.1 -8,2.7 -13.4,3.6c-11,1.9 -19.7,1.4 -26.2,-1.5c-2.2,-0.9 -6.2,-2.7 -9,-4c-2.7,-1.2 -8.8,-2.8 -13.4,-3.6c-6.6,-1.1 -10.3,-2.4 -18,-6.5c-15.7,-8.6 -16.4,-8.9 -18.6,-8.8c-1.1,0 -3.8,0.6 -6,1.3z"/>
    <path d="m279.9,262.35c0.2,0.2 2,1.1 3.9,2.1l3.5,1.8l-1.9,-2.2c-1.1,-1.1 -2.8,-2.1 -3.9,-2.1s-1.8,0.2 -1.6,0.4zm182.8,10.9c0.8,1 0.9,1.7 0.3,1.7c-1.8,0 -0.1,7.3 2.4,10c2.1,2.3 4.1,8.9 3.6,11.7c-0.2,0.7 0.2,2.2 0.9,3.4c0.7,1.4 0.7,2.4 0.1,2.8c-0.5,0.3 -1.4,3.2 -1.9,6.3c-1.1,6.3 -0.3,9.2 1.6,6.2c1.1,-1.7 1.2,-1.5 0.8,1c-0.5,3 -0.5,3 1.2,0.8c1.4,-1.9 2.3,-2.1 6.1,-1.6l4.5,0.6l2.3,-12.9c1.2,-7 2.2,-14.4 2.2,-16.4c0,-3.6 -0.1,-3.7 -7.4,-6.3c-4.1,-1.4 -7.9,-2.6 -8.4,-2.6s-1.5,-0.7 -2.3,-1.6c-0.7,-0.8 -2.6,-2.2 -4.3,-3.1c-2.9,-1.5 -3,-1.5 -1.7,0zm97.6,2c-4.8,1.4 -7.6,3 -13.4,7.4l-4.4,3.3l-22.7,-0.5l-22.7,-0.5l-1.7,10.2c-1,5.7 -2.1,12.9 -2.3,16l-0.5,5.8l6.3,0c7.7,0 14.8,-3 20.3,-8.4c3.4,-3.5 3.9,-3.7 9.4,-3.4c5.3,0.3 5.7,0.5 5.7,2.7c0,1.9 1.8,3.8 6.9,7.7c6.9,5.2 17.5,11.1 21.2,11.7c1,0.1 2.4,0.5 2.9,0.8c0.6,0.3 9.6,0.7 20,0.8l19,0.3l0.4,-21.1l0.3,-21.1l-4.6,0c-3.6,0 -7.4,-1.4 -17.8,-6.5c-13.6,-6.7 -15.5,-7.1 -22.3,-5.2zm75.3,5.9c-1.7,1.4 -3.8,15.5 -3.8,25.3l0,5.8l3.8,-0.7c2,-0.3 4.3,-0.6 5,-0.6c0.9,0 1.2,-3.8 1.2,-15.5l0,-15.5l-2.3,0c-1.3,0 -3,0.6 -3.9,1.2zm-17.4,4.1l-3.1,2.1l-0.9,19.7l-0.9,19.7l2.5,-2c4.6,-3.6 6,-6.9 6,-13.8c0,-3.6 0.7,-11 1.5,-16.5s1.5,-10.3 1.5,-10.8c0,-1.4 -3.5,-0.6 -6.6,1.6zm-173.9,4.7c-2.9,0.7 -2.8,0.8 1,0.8c2.2,0 4.9,-0.3 6,-0.8c1.7,-0.7 1.5,-0.9 -1,-0.8c-1.6,0 -4.3,0.4 -6,0.8zm-40.5,25.8c0,3.1 2.4,7.1 3.6,5.9c0.4,-0.4 0.2,-1.3 -0.4,-1.9c-0.7,-0.7 -1.2,-2.5 -1.2,-4s-0.4,-2.8 -1,-2.8c-0.5,0 -1,1.3 -1,2.8z"/>
   </g>
   <path d="m576,330.45c0.8,0.8 25.7,0.9 26.5,0.2c0.3,-0.4 -5.6,-0.7 -13.2,-0.7s-13.6,0.2 -13.3,0.5zm44.8,67.3c0,0.4 0.9,1.3 1.9,1.9c1.6,1 2,0.9 2.5,-0.3c0.9,-2.3 0.8,-2.4 -1.9,-2.4c-1.4,0 -2.5,0.3 -2.5,0.8z" stroke-width="0.4" stroke="#E7CBCB" fill="#E7CBCB"/>
   <path d="m607.1,377.45c0,3.8 0.2,5.3 0.4,3.2c0.2,-2 0.2,-5.2 0,-7c-0.2,-1.7 -0.4,-0.1 -0.4,3.8zm9,-0.5c0,3.6 0.2,5 0.4,3.2c0.2,-1.7 0.2,-4.7 0,-6.5c-0.2,-1.7 -0.4,-0.3 -0.4,3.3z" stroke-width="0.4" stroke="#CBAAAA" fill="#CBAAAA"/>
   <path d="m463.1,368.45c0,4.4 0.2,6.1 0.4,3.7c0.2,-2.3 0.2,-5.9 0,-8c-0.2,-2 -0.4,-0.1 -0.4,4.3z" stroke-width="0.4" stroke="#E7E77C" fill="#E7E77C"/>
   <path d="m529.8,405.95c-2.8,2.2 -1.5,2.6 2.4,0.9c1.4,-0.7 2.3,-1.6 2,-2c-0.8,-1.3 -1.6,-1.1 -4.4,1.1zm-21.3,1.2c-0.7,0.4 2.1,0.8 6.2,0.8s7.1,-0.3 6.7,-0.7c-0.9,-0.9 -11.5,-1 -12.9,-0.1zm-55.4,19.5c1.5,0.2 3.9,0.2 5.5,0c1.5,-0.2 0.2,-0.4 -2.8,-0.4s-4.3,0.2 -2.7,0.4z" stroke-width="0.4" stroke="#CB7C7C" fill="#CB7C7C"/>
   <path d="m625.1,254.95c0,3 0.2,4.3 0.4,2.7c0.2,-1.5 0.2,-3.9 0,-5.5c-0.2,-1.5 -0.4,-0.2 -0.4,2.8zm-21,63c0,3 0.2,4.3 0.4,2.7c0.2,-1.5 0.2,-3.9 0,-5.5c-0.2,-1.5 -0.4,-0.2 -0.4,2.8z" stroke-width="0.4" stroke="#CB007C" fill="#CB007C"/>
   <path d="m417.2,371.95c0,5.2 0.1,7.4 0.3,4.7c0.2,-2.6 0.2,-6.8 0,-9.5c-0.2,-2.6 -0.3,-0.4 -0.3,4.8z" stroke-width="0.4" stroke="#E7CB7C" fill="#E7CB7C"/>
   <path d="m406.1,267.45c0,3.3 0.2,4.5 0.4,2.7c0.2,-1.8 0.2,-4.5 0,-6s-0.4,0 -0.4,3.3z" stroke-width="0.4" stroke="#FF7CCB" fill="#FF7CCB"/>
   <path d="m407.9,232.45c-4,1.4 -8,2.5 -8.8,2.5c-0.7,0 -3,0.7 -5,1.5c-2.9,1.2 -3.3,1.8 -2.4,2.9c1.8,2.1 0,8.1 -2.4,8.1c-1.1,0 -2.3,1.2 -3.1,3.1c-1.3,3 -1.2,3.2 1.4,4.3c1.5,0.6 5.7,1 9.4,0.8c4.3,-0.1 7.1,0.2 7.9,1.1c0.9,0.8 1.4,6 1.7,17c0.1,8.6 0.3,16.1 0.4,16.7c0.1,0.5 -0.2,2.5 -0.7,4.4c-0.8,3.9 -1.2,3.9 10,-0.4c3.9,-1.5 10.1,-3.5 13.8,-4.5c3.8,-1 7.7,-2.6 8.6,-3.4c1,-0.9 4.4,-2 7.7,-2.6c12.5,-2 12.5,-2 11.8,-4.4c-0.9,-3 -9.5,-15.9 -11.6,-17.4c-1.3,-1 -1.8,-2.7 -1.8,-6.3c0,-3.6 -0.6,-5.8 -2,-7.6c-1.1,-1.5 -2,-4.1 -2,-6c0,-4.5 -3.1,-7 -12,-10c-8.3,-2.8 -11.8,-2.8 -20.9,0.2zm37.9,7c-1.3,1.5 -0.7,4.5 0.8,4.5c0.5,0 1.7,-0.9 2.8,-2.1c1.6,-1.7 1.6,-2.2 0.4,-2.9c-2,-1.3 -2.6,-1.2 -4,0.5z" stroke-width="0.4" stroke="#FF7CE7" fill="#FF7CE7"/>
   <path d="m148,311.55c-2.7,1.8 -2.2,5 1.2,7.4c5.8,4 7.2,6.4 8.5,14.5c0.7,4.4 2.2,10.2 3.2,12.8c1.1,2.7 2.5,8.7 3.1,13.5c0.7,4.9 1.9,9.8 2.9,11.2c0.9,1.4 2.9,5.1 4.4,8.3c1.5,3.2 4.1,7.2 5.6,8.8c1.6,1.7 2.9,3.7 2.9,4.4c0,1.8 3.4,4.5 5.7,4.5c3.3,0 5.3,3.3 8.2,13.7c1.5,5.5 4.1,12.1 5.7,14.5c2.8,4.5 3,4.6 9.4,5.2c10.3,1 23,0.7 28.6,-0.6l5.2,-1.2l0.4,-4.4c0.3,-3.4 -0.4,-6 -3,-11.4c-1.9,-3.9 -4,-9.9 -4.7,-13.4c-1.2,-5.7 -4,-12.6 -8,-19.4c-1.7,-2.8 -2,-14.5 -0.5,-15.5c2.4,-1.5 1.8,-3.1 -10.8,-26.7c-2.9,-5.3 -5.2,-10.5 -5.2,-11.5c0,-2.4 1.9,-4.3 4.1,-4.3c1.5,0 1.6,-0.4 0.6,-2.9l-1.1,-3l-3,2.2c-1.7,1.1 -4.6,3.4 -6.5,5c-2.9,2.5 -4,2.8 -7.3,2.4c-2.1,-0.3 -5.5,-1.8 -7.4,-3.4c-8.1,-6.4 -8.1,-6.4 -18.9,-5.7l-10,0.6l-5.3,-3.6c-3,-2 -5.5,-3.6 -5.6,-3.6c-0.1,0 -1.2,0.7 -2.4,1.6zm377.9,-0.5c-1.3,0.5 -3.8,2.3 -5.5,4c-1.7,1.7 -4.2,3.7 -5.6,4.4c-2.9,1.5 -12.8,3.7 -18,4c-3.1,0.2 -3.5,0.6 -4.2,3.6c-0.4,2 -0.1,8 0.8,14.3c1,6.6 1.5,16.7 1.4,26c-0.1,8.3 -0.1,15.4 -0.1,15.8c0.1,0.4 5.1,-1.7 11.2,-4.7c6.2,-3 12.1,-5.5 13.1,-5.5c1.1,0 3.4,-0.7 5.1,-1.5c10.3,-4.7 61.9,-22.2 75.5,-25.5c4.1,-1 4.2,-1.2 4.2,-5.2l0,-4l-5.3,0.6c-7.9,1 -26.6,-1.1 -36,-4c-8.4,-2.7 -13,-5 -18.1,-9.2c-1.7,-1.4 -3.7,-2.1 -4.8,-1.9c-1.4,0.4 -2.2,-0.2 -2.8,-1.9c-0.5,-1.3 -1.6,-2.4 -2.5,-2.4c-0.8,0 -1.8,-1.2 -2.1,-2.8c-0.7,-2.8 -2.2,-5.2 -3.3,-5.1c-0.3,0 -1.7,0.5 -3,1zm105.7,8.6c-0.3,2 0.1,3.4 0.9,3.7c0.7,0.3 1.3,1.7 1.3,3.1c0,3 0.5,3.1 4.8,0.5c2.7,-1.7 3.2,-2.5 3.2,-5.9l0,-3.9l-4.9,-0.4c-4.9,-0.3 -4.9,-0.3 -5.3,2.9zm-158,5.7c-1.5,1.3 -3.1,2.5 -3.7,2.7c-1.1,0.4 -1.4,11.5 -0.5,19.6c0.3,2.9 0.2,5.3 -0.3,5.3c-3,0.1 -3.3,1.7 -1.3,7.5c1.1,3.2 2,7.3 2,9.2c0,2.7 -0.4,3.3 -2.2,3.4c-1.4,0 -1.7,0.3 -0.9,0.6c0.7,0.3 3.1,0 5.3,-0.8l4,-1.3l3.3,3.9c3.1,3.7 3.3,3.8 3.9,1.7c0.4,-1.2 1.1,-2.2 1.6,-2.2c1.8,0 2.1,-12.7 0.5,-24c-0.8,-6.3 -1.8,-14.4 -2.2,-17.9c-0.6,-6.4 -2.7,-10.1 -5.5,-10.1c-0.7,0 -2.5,1.1 -4,2.4zm-190.4,3.3c0.3,2.1 0.8,6.5 1.2,9.8c0.6,4.9 1.2,6.4 3.6,8.5c3.4,2.9 13.9,18 16.1,23.1c0.8,1.9 3,5.3 4.9,7.5c1.9,2.3 4.1,5.7 4.8,7.5c0.7,1.9 1.9,4.8 2.6,6.6c0.8,1.7 1.4,3.6 1.4,4.1c0,0.6 1.1,2.4 2.5,4c1.5,1.8 2.8,4.9 3.2,7.8c1,7.8 6.8,20.8 9.5,21.6c1.3,0.3 9.7,0.6 18.6,0.7c15,0.1 16.6,-0.1 18.9,-1.9c1.8,-1.4 4.1,-2 7.4,-2c2.7,0 4.9,-0.4 4.9,-0.9c0,-0.4 -1.8,-3.5 -4,-6.7c-3.3,-4.9 -4,-6.7 -4,-10.7c0,-6 -2.4,-11.3 -5.3,-12.1c-1.2,-0.3 -3.4,-1.6 -4.8,-3c-1.5,-1.4 -3,-2.2 -3.5,-1.8c-0.4,0.4 -0.4,0.1 0,-0.5c0.4,-0.7 -1,-3 -3.4,-5.6c-2.2,-2.4 -4,-5.1 -4,-6c0,-0.8 -0.9,-3.4 -2,-5.8c-2.4,-5.3 -2.5,-7.3 -0.4,-9.3c2,-2.1 13.2,-2.1 18.1,-0.1c1.9,0.8 5.8,1.5 8.5,1.5c8.5,0 12.8,3.1 21.3,15.9c1.7,2.4 5,6.6 7.4,9.3c3.7,4.1 4.6,4.7 5.3,3.4c1,-1.8 0.4,-31 -0.7,-36.9c-0.5,-2.8 -1.2,-3.7 -2.7,-3.7c-1.9,0 -2,-0.4 -1.4,-6.5c0.7,-6.9 0.4,-7.3 -5.1,-6.6c-2.5,0.3 -8.9,-3.8 -12.6,-8.1l-3.9,-4.5l-5.6,1.3c-5.7,1.4 -11.1,0.7 -13.7,-1.7c-2,-1.9 -7.8,-0.7 -16.7,3.6c-12.5,6 -22.3,8.7 -32.4,8.7c-9,0 -13.9,-1.8 -22.8,-8.7c-4.6,-3.4 -8.5,-5.5 -10.8,-5.5c-0.6,0 -0.8,1.5 -0.4,3.7zm332.4,3.7c-1.2,0.8 -1.8,2.7 -1.8,5c0,3.9 0.2,4.1 3.1,2.6c1.4,-0.8 1.9,-2.1 1.9,-5c0,-4.3 -0.5,-4.7 -3.2,-2.6zm-175.8,11.8c0,11.6 -2.7,16.2 -7,12.3c-2,-1.8 -2,-1.7 -2,6c0,10.9 1.9,20.5 4.5,23.1c1.2,1.1 2.7,1.8 3.3,1.6c0.7,-0.2 1.2,0.1 1.2,0.7c0,1.8 1.7,1.3 4.5,-1.3l2.5,-2.4l-3.1,-10c-3.6,-11.4 -3.4,-13.6 1.2,-13l3.1,0.5l-0.2,-5.6c-0.3,-7.6 -0.2,-8.3 1.3,-7.5c0.6,0.4 -0.7,-1.3 -2.9,-3.7c-2.3,-2.4 -4.6,-5.3 -5.2,-6.4c-0.9,-1.6 -1.1,-0.5 -1.2,5.7zm197.7,-4.5c-4.9,3.5 -4.8,5.3 0.3,5.3l4,0l0,-4c0,-2.2 -0.1,-4 -0.3,-4c-0.1,0 -1.9,1.2 -4,2.7zm-39.7,17.4c-13.4,3.5 -46.6,14.6 -51.5,17.2c-1.1,0.6 -2.7,1.2 -3.6,1.4c-0.8,0.1 -2.5,0.6 -3.8,1.1c-2.1,0.8 -2.1,0.8 1,3.1c2.6,1.9 3.6,2.2 5,1.2c1,-0.6 2.6,-1.1 3.5,-1.1c2,0 8,3.5 11.6,6.8l2.6,2.4l16.9,-2.3c9.2,-1.2 19.2,-2.4 22.2,-2.7l5.4,-0.4l-0.7,-8.7c-0.4,-4.7 -1,-11.1 -1.4,-14.2l-0.7,-5.6l-6.5,1.8zm17.4,3.1c0.4,2.9 0.9,9.2 1.3,14l0.5,8.8l4.4,0c2.4,0 4.4,-0.2 4.4,-0.4s-0.7,-4 -1.5,-8.3c-0.8,-4.3 -1.5,-10.4 -1.5,-13.6l0,-5.7l-8.3,0l0.7,5.2zm21.1,-3.5c0.3,1 1.3,6.3 2.2,11.8c0.9,5.5 2,10.4 2.5,11c0.4,0.5 0.8,-4.8 0.8,-11.8l0,-12.7l-3.1,0c-2.6,0 -3,0.3 -2.4,1.7zm-128.7,32.4c-6.7,3.4 -12.5,6.3 -12.7,6.6c-0.3,0.2 0.3,1.1 1.2,2c1.6,1.6 2.2,1.6 10.4,0c4.9,-0.9 10.6,-1.9 12.8,-2.2c9,-1.3 8.5,-0.7 5.6,-6.9c-1.4,-3 -3.1,-5.5 -3.8,-5.5c-0.6,-0.1 -6.7,2.7 -13.5,6zm133.2,19.9c-0.3,7.4 -0.4,13.7 -0.2,13.9c0.9,1.6 1.2,-2.4 1,-14l-0.3,-13.4l-0.5,13.5zm-25.9,-5.3c-0.6,3.8 -1.3,9.6 -1.5,13l-0.3,6.3l3.8,0c3,0 3.9,-0.4 3.9,-1.8c0.1,-1.6 0.1,-1.6 1.4,0.1c1.2,1.6 1.5,1.1 2.5,-4.6c1.3,-7.3 1.5,-18.8 0.3,-16.9c-0.6,0.9 -1.3,0.7 -3,-0.8c-1.1,-1.1 -3,-2 -4.1,-2c-1.6,0 -2.1,1.1 -3,6.7zm-24.7,-4.5l-8.2,1l2.5,4.4l2.5,4.4l8.1,-0.6c4.5,-0.4 8.3,-0.8 8.4,-0.9c0.2,-0.1 0.7,-2.3 1.2,-4.8l0.8,-4.7l-3.6,0.1c-2,0.1 -7.3,0.6 -11.7,1.1zm-76.2,20.4c0.3,2.8 0.5,2.9 5.8,2.8c9.5,-0.1 17,-1.4 17,-3c0,-0.9 -1.1,-1.4 -3.2,-1.4c-1.8,0 -7,-0.3 -11.6,-0.7l-8.4,-0.6l0.4,2.9zm-56.2,0.9c-1.4,0.8 -3.1,1.4 -3.7,1.5c-0.7,0 -2.3,1 -3.5,2.2l-2.1,2.1l7.8,-0.6c8.8,-0.8 10.2,-1.5 8.6,-4.6c-1.3,-2.4 -3.6,-2.6 -7.1,-0.6z" stroke-width="0.4" stroke="#E7CBE7" fill="#E7CBE7"/>
   <path d="m419.1,522.65c1.5,0.2 3.9,0.2 5.5,0c1.5,-0.2 0.2,-0.4 -2.8,-0.4s-4.3,0.2 -2.7,0.4z" stroke-width="0.4" stroke="#007C00" fill="#007C00"/>
   <path d="m238.3,516.45c2.8,0.7 5.9,1.3 7,1.3l2,0.1l-2,-0.8c-1.1,-0.5 -4.2,-1.1 -7,-1.4l-5,-0.6l5,1.4z" stroke-width="0.4" stroke="#7CAAAA" fill="#7CAAAA"/>
   <path d="m632.7,514.25c0.5,0.5 2.8,0.4 5.2,-0.1l4.4,-1l-5.2,0.1c-2.8,0.1 -4.8,0.6 -4.4,1zm-449.4,0.9c0.4,0.9 -0.2,2.9 -1.2,4.4c-1.3,2 -1.4,2.9 -0.5,3.2c2.5,0.8 1,3.1 -4,6.1c-2.9,1.7 -9.1,6.7 -13.8,11.1l-8.5,8l11.8,0c12.8,0 14.5,-0.5 17.1,-4.7l1.7,-2.8l-2,2.3c-1.1,1.3 -2.2,1.8 -2.6,1.2c-0.4,-0.6 -1.6,-0.3 -3.2,0.7c-1.9,1.2 -4.9,1.7 -11,1.8c-4.6,0.1 -8,-0.2 -7.6,-0.5c0.5,-0.4 4.1,-3.7 8.1,-7.4c4.1,-3.6 7.9,-6.3 8.4,-6c0.6,0.4 0.8,0.2 0.5,-0.3c-0.4,-0.6 0,-1.6 0.8,-2.3c0.8,-0.7 1.5,-0.9 1.5,-0.6c0,0.4 1.2,-0.4 2.6,-1.8c2.1,-1.9 2.5,-3 2,-5c-0.4,-1.5 -0.1,-3.4 0.6,-4.6c1,-1.6 1,-2.2 0,-3.2c-1.1,-1.1 -1.2,-1 -0.7,0.4zm6,-0.5c1.1,0.3 2.9,1.2 4,1.9c2.6,1.8 5.9,1.8 7.5,-0.1c1.5,-1.8 3.7,-2 4.3,-0.3c0.3,1 0.7,1 1.8,0.1c1,-0.8 5.9,-1.4 13,-1.6c11.1,-0.3 11,-0.3 -3.4,-0.5c-12.1,-0.2 -15.1,0.1 -16.3,1.3c-0.9,0.8 -2.4,1.5 -3.3,1.5c-1,0 -2.4,-0.7 -3.1,-1.5c-0.7,-0.8 -2.4,-1.4 -3.9,-1.4c-2.1,0.1 -2.2,0.2 -0.6,0.6zm52.5,5.1c-4.4,2.3 -12.6,8.2 -11.3,8.2c0.6,0 2.2,-1 3.7,-2.1c1.5,-1.2 5.1,-3.4 7.9,-5c5.6,-3.1 5.4,-3.9 -0.3,-1.1zm376,-0.9c-4.2,0.6 -4.5,0.8 -4.6,3.6c-0.1,2.8 -0.1,2.8 0.3,0.2c0.4,-2.5 0.8,-2.7 4.9,-2.7c2.4,0 4.4,-0.5 4.4,-1c0,-0.6 -0.1,-0.9 -0.2,-0.8c-0.2,0 -2.3,0.4 -4.8,0.7zm-17.1,0.7c2.4,0.4 3.1,1.1 3.4,3.7c0.4,3.1 0.5,3.1 0.3,-0.3c-0.1,-3.2 -0.4,-3.5 -3.3,-3.8c-3.1,-0.2 -3.2,-0.2 -0.4,0.4zm-315.9,3.8c0,1.9 -0.8,4.3 -1.7,5.5c-1,1.1 -9,5.2 -17.8,9.1c-18.6,8.2 -20.6,9.2 -20.1,9.7c0.2,0.2 3.4,-1 7.2,-2.8c16.7,-7.6 24.2,-10.9 25.1,-10.9c0.4,0 2.5,-1.4 4.6,-3.1c2.9,-2.4 3.7,-3.7 3.7,-6.4c0,-3.3 0.2,-3.4 4.3,-3.8l4.2,-0.4l-4.7,-0.1l-4.8,-0.2l0,3.4zm58.8,-0.2c-0.2,1.7 -0.9,2.3 -2.6,2.2c-1.4,0 -1.9,0.3 -1.3,0.9c1.5,1.5 4.6,0.3 4.9,-2c0.3,-2 1,-2.2 7.5,-2.6l7.2,-0.3l-7.7,-0.2c-7.3,-0.2 -7.7,-0.1 -8,2zm-145.3,0.8c-1,1.2 -2.5,1.8 -3.2,1.5c-0.8,-0.2 -1.2,-0.1 -0.8,0.4c0.5,0.9 -0.2,1.7 -3.9,4.9c-1.6,1.3 -1.1,4.2 0.6,4.2c0.6,0 0.4,-0.8 -0.3,-1.7c-1.2,-1.5 -1.2,-1.6 0.4,-1c1,0.4 1.6,0.3 1.2,-0.2c-0.3,-0.6 1.2,-2.4 3.4,-4.2c2.2,-1.7 4.2,-3.8 4.5,-4.5c0.7,-1.9 0.2,-1.8 -1.9,0.6zm175,-1.3c9.6,0.3 14.2,0.7 14.7,1.6c0.5,0.8 0.8,0.7 0.8,-0.6c0,-1.5 -1.3,-1.7 -14.7,-1.5l-14.8,0.2l14,0.3zm102.2,-0.1c-1.3,1.4 0.6,2.4 4.4,2.4c4,0 5.2,-1.3 2.3,-2.4c-2.1,-0.8 -5.9,-0.8 -6.7,0zm39.8,0.4l-5,0.7l6.7,0.1c3.7,0.1 7,-0.3 7.3,-0.8c0.7,-1.1 -1.1,-1.1 -9,0zm-105.5,1.5c-1.3,1.6 0,2.1 1.6,0.6c0.5,-0.5 2.5,-1.1 4.4,-1.4c3.4,-0.4 3.4,-0.4 -0.6,-0.5c-2.6,-0.1 -4.6,0.4 -5.4,1.3zm60,0c0,2.4 -3.7,5.5 -6.5,5.5c-1.4,0 -3.7,-1.1 -5,-2.5c-1.4,-1.3 -2.5,-2 -2.5,-1.5c0,1.6 5.2,5 7.7,5c2.7,0 7.3,-4.1 7.3,-6.5c0,-0.8 -0.2,-1.5 -0.5,-1.5s-0.5,0.7 -0.5,1.5zm-248,5.5c-1.4,1.1 -5.2,3.4 -8.5,5.1c-3.3,1.7 -7.2,4.5 -8.7,6.2c-2.7,3.2 -3.7,6.7 -1.8,6.7c0.5,0 0.7,-0.6 0.4,-1.4c-0.8,-2 5.4,-8.1 11.3,-11c6.6,-3.3 13,-7.6 11.2,-7.6c-0.8,0 -2.5,0.9 -3.9,2zm-21.9,6.4c-0.6,1.6 -1,3.7 -0.8,4.5c0.3,1.1 0.8,0.7 1.6,-1.3c0.6,-1.6 1,-3.7 0.8,-4.5c-0.3,-1.1 -0.8,-0.7 -1.6,1.3zm222,4.2c0.1,1.6 0.5,4 0.9,5.4c0.6,1.7 0.7,0.9 0.3,-2.5c-0.6,-5.6 -1.4,-7.4 -1.2,-2.9zm182,3.1c0,1.3 -0.7,2.3 -1.3,2.3c-0.7,0.1 -7.5,0.2 -15.1,0.2c-7.8,0.1 -13.1,0.6 -12.3,1c0.9,0.5 8,0.7 15.8,0.6l14.3,-0.3l-0.6,-3c-0.5,-2.3 -0.7,-2.5 -0.8,-0.8zm10.9,2c0,2.1 0.5,2.3 5.1,2.3c5.7,0 6,-1.5 0.3,-1.8c-2.1,-0.2 -4.2,-0.8 -4.6,-1.5c-0.5,-0.8 -0.8,-0.4 -0.8,1zm21.1,-0.8c-4.5,1.2 -3.7,3.1 1.3,3.1c3.9,0 4.6,-0.3 4.6,-2c0,-2.1 -1.5,-2.4 -5.9,-1.1zm-313.4,0.7c-0.1,0.2 -5.9,0.6 -12.7,0.9c-6.8,0.3 -12.6,0.7 -12.8,1c-0.3,0.3 19.3,0.5 43.6,0.5c27.4,0 44.2,-0.4 44.2,-1c0,-0.5 -1.9,-0.8 -4.2,-0.7c-2.4,0.1 -9.3,-0.2 -15.4,-0.7c-8,-0.6 -11.4,-0.5 -11.8,0.3c-0.4,0.6 -1.2,0.8 -1.8,0.5c-1.1,-0.7 -28.4,-1.4 -29.1,-0.8zm237.8,1.3c-0.6,1.1 9.6,1.1 11.3,0.1c1.2,-0.7 0,-1 -4.6,-0.8c-3.5,0.1 -6.5,0.4 -6.7,0.7z" stroke-width="0.4" stroke="#007C7C" fill="#007C7C"/>
   <path d="m184.4,515.35c0.3,0.9 0.1,2.3 -0.5,3c-0.7,0.8 -0.9,2.5 -0.5,4.1c0.5,2.1 0.1,3.2 -2,5.1c-1.4,1.4 -2.6,2.2 -2.6,1.8c0,-0.3 -0.7,-0.1 -1.5,0.6s-1.2,1.7 -0.8,2.3c0.3,0.5 0.1,0.7 -0.5,0.3c-0.5,-0.3 -4.3,2.4 -8.4,6c-4,3.7 -7.6,7 -8.1,7.4c-0.4,0.3 3,0.6 7.6,0.5c6.1,-0.1 9.1,-0.6 11,-1.8c1.6,-1 2.8,-1.3 3.2,-0.7c0.4,0.6 1.5,0.1 2.6,-1.2l2,-2.3l-1.7,2.8c-0.9,1.5 -2.4,3.2 -3.3,3.7c-1.1,0.6 2.1,0.9 9.7,1c10,0 11.2,-0.2 11.2,-1.8c0.1,-2.8 5.1,-7.9 11,-10.8c3,-1.5 6.9,-3.8 8.6,-5.1c1.7,-1.3 4.2,-2.3 5.6,-2.3c1.4,0 4.9,-1.7 7.9,-3.9c3,-2.1 6.5,-4.2 7.9,-4.6c2.1,-0.7 1.4,-1.1 -5,-2.6c-9.1,-2.2 -28.9,-2.6 -30.9,-0.7c-1.1,1 -1.4,1 -1.8,0c-0.6,-1.7 -2.8,-1.5 -4.3,0.3c-1.6,1.9 -4.9,1.9 -7.6,0.1c-1.1,-0.8 -3.7,-1.7 -5.7,-2.1c-3.2,-0.6 -3.6,-0.5 -3.1,0.9zm15.8,8c-0.3,0.7 -2.3,2.8 -4.5,4.5c-2.2,1.8 -3.7,3.6 -3.4,4.2c0.4,0.5 -0.2,0.6 -1.2,0.2c-1.6,-0.6 -1.6,-0.5 -0.4,1c0.7,0.9 0.9,1.7 0.3,1.7c-1.7,0 -2.2,-2.9 -0.6,-4.2c3.7,-3.2 4.4,-4 3.9,-4.9c-0.4,-0.5 0,-0.6 0.8,-0.4c0.7,0.3 2.2,-0.3 3.2,-1.5c2.1,-2.4 2.6,-2.5 1.9,-0.6zm0.5,16.2c-0.8,2 -1.3,2.4 -1.6,1.3c-0.2,-0.8 0.2,-2.9 0.8,-4.5c0.8,-2 1.3,-2.4 1.6,-1.3c0.2,0.8 -0.2,2.9 -0.8,4.5zm431.6,-23.1c0.3,1.1 0.9,8 1.2,15.3l0.6,13.4l3,-0.6c1.6,-0.3 3.3,-0.6 3.8,-0.6s0.9,-6.7 0.9,-15l0,-15l-5,0.3c-4.6,0.2 -5,0.4 -4.5,2.2zm-342.2,4.2c-4.1,0.4 -4.3,0.5 -4.3,3.8c0,2.7 -0.8,4 -3.7,6.4c-2.1,1.7 -4.2,3.1 -4.7,3.1c-0.9,0 -21.4,9.1 -27.6,12.3c-3.4,1.7 -2.8,1.7 25.5,1.2c16,-0.3 31.7,-0.7 35,-1c10.7,-0.8 40.7,-1 41.1,-0.3c0.3,0.4 1.3,0.3 2.3,-0.4c1.3,-0.8 5,-0.8 13.8,-0.1c16.2,1.4 17.3,1.2 17.3,-3.9c0,-2.2 0.7,-7.1 1.7,-10.9c0.9,-3.8 1.4,-7.1 1.2,-7.3c-0.2,-0.2 -9.9,-0.6 -21.6,-1l-21.2,-0.6l-0.3,2.2c-0.4,2.8 -3.7,3.6 -5.4,1.4c-0.7,-1 -3.8,-2 -8.5,-2.6c-4.1,-0.6 -10.3,-1.5 -13.9,-2c-6.4,-0.9 -18.3,-1 -26.7,-0.3zm299,0.3c-3.9,0.4 -9.6,1.3 -12.5,2c-2.9,0.6 -7.5,1.6 -10.3,2.1c-8.8,1.8 -8.3,1.4 -7.4,6.7c0.4,2.6 0.8,7 0.8,9.9c0.1,5 1.3,7.4 2.6,5.3c0.3,-0.5 3,-1 5.8,-1c3.7,0 4.8,0.3 3.7,1c-1.2,0.7 -0.8,1 1.5,1c1.8,0 2.5,-0.3 1.8,-0.8c-0.7,-0.4 4.9,-0.9 12.5,-1c7.5,0 14.3,-0.1 15,-0.2c0.9,0 1.2,-3.3 1.2,-13l0,-13l-3.7,0.1c-2.1,0.1 -7,0.5 -11,0.9zm24.7,7.9c0,5 0.5,9.3 1,9.6c0.6,0.3 1,2.1 1,3.9c0,3.1 0.3,3.4 3.5,3.8c2,0.2 3.8,0.2 4,-0.1c0.7,-0.7 0.6,-16.1 -0.1,-21.5l-0.7,-4.6l-8.7,0l0,8.9zm-89.6,-5.7c-0.3,0.5 -3.4,0.8 -6.8,0.8l-6.4,0l-0.5,3.2c-1.4,7.9 -1.9,14.8 -1.2,17.7l0.7,3.1l19.6,-0.4l19.7,-0.3l-0.2,-5c-0.1,-2.8 -1.1,-7.5 -2.3,-10.4c-1.1,-3 -2,-6.4 -2,-7.7c0,-2.3 -0.1,-2.3 -10.1,-2c-5.5,0.2 -10.3,0.6 -10.5,1zm-107.9,0.6c-1.6,0.2 -4.4,1 -6.2,1.8c-1.7,0.7 -4,1.4 -5.1,1.4c-1.2,0 -2.4,0.4 -2.7,1c-0.3,0.5 -1.4,1 -2.5,1s-2.2,1.2 -2.9,3.2c-1.2,3.4 -2.7,14.7 -2,14.9c0.2,0 6.6,0.3 14.2,0.6l13.8,0.4l-0.6,-4.3c-0.5,-3.2 -0.1,-6 1.5,-10.3c3.6,-10.4 3.6,-9.7 0.4,-9.4c-1.6,0.2 -3.4,0.1 -3.9,-0.2c-0.6,-0.2 -2.3,-0.3 -4,-0.1zm28.3,0l-5.8,0.3l0,5.8c0,3.2 -0.3,8.6 -0.6,12l-0.7,6.1l43.1,0l1,-3.3c0.6,-1.7 1.2,-6.9 1.5,-11.5l0.4,-8.2l-3.8,0c-2.1,0 -4.1,-0.5 -4.4,-1c-1.2,-2 -4,-0.9 -5.5,2.3c-2.8,5.9 -10.8,5.9 -13.5,0c-1,-2.4 -3.5,-2.9 -11.7,-2.5zm48.8,6.9c-1.5,19.1 -1.7,17.3 1.9,17.3l3.2,0l0.7,-11c0.3,-6 0.9,-11.6 1.2,-12.5c0.5,-1.2 -0.1,-1.5 -2.9,-1.5l-3.5,0l-0.6,7.7z" stroke-width="0.4" stroke="#00AA7C" fill="#00AA7C"/>
  </g>
  <path stroke-width="0.4" id="svg_2" d="m204,430c38,2 44,-6 44,-4c0,2 -22,-62 -22,-62c0,0 -11,-31 -11,-31c0,0 -20,-60 -20,-60c0,0 44,-3 44,-3c0,0 38,38 38,38c0,0 9,40 9,40c0,0 31,52 31,52c0,0 58,31 58,31c0,0 8,72 8,72c0,0 3,14 3,14c0,0 -241,-8 -241,-8c0,0 -1,-88 -1,-88c0,0 -1,-101 -1,-101c0,0 29,71 29,71c0,0 12,8 12,8c0,0 -29,-59 -29,-59" stroke="#00AA7C" fill="#006d4c"/>
  <path id="svg_3" d="m394,444c1,19 4,53 4,54c0,1 81,2 81,2c0,0 6,-62 6,-62" opacity="NaN" stroke="#00AA7C" fill="#006d4c"/>
  <path id="svg_4" d="m515,435l-3,63l90,-3l0,-68" opacity="NaN" stroke="#00AA7C" fill="#006d4c"/>
  <path id="svg_5" d="m354,368l20,24l9,25l20,-3l5,-15l-13,-19l-10,-10l-21,-4l-3,18" opacity="NaN" stroke="#00AA7C" fill="#006d4c"/>
  <path id="svg_6" d="m494,435l-2,65l9,-3l2,-61" opacity="NaN" stroke="#00AA7C" fill="#006d4c"/>
  <path id="svg_7" d="m613,425l3,66l8,0l5,-60" opacity="NaN" stroke="#00AA7C" fill="#006d4c"/>
  <path id="svg_8" d="m538,404l37,-6l7,7c0,0 -35,3 -36,3" opacity="NaN" stroke="#00AA7C" fill="#006d4c"/>
  <path id="svg_9" d="m530,392l24,-3l-6,-7l-14,-3" opacity="NaN" stroke="#00AA7C" fill="#006d4c"/>
  
  <animateTransform
            attributeName="transform"
            begin="0s"
            dur="20s"
            type="rotate"
            from="0 400 300"
            to="360 400 300"
            repeatCount="indefinite"
        />
 </g>
</svg>
